<svg id="svg" xmlns="http://www.w3.org/2000/svg" xmlns:xlink="http://www.w3.org/1999/xlink" width="400" height="400" viewBox="0, 0, 400,400"><g id="svgg"><path id="path0" d="M192.188 51.532 C 187.466 54.058,37.333 188.035,35.156 191.665 C 24.655 209.177,47.800 225.221,63.328 211.193 L 66.406 208.412 66.406 272.803 L 66.406 337.193 68.385 341.165 C 69.621 343.645,71.575 345.975,73.591 347.373 L 76.818 349.609 115.743 349.826 C 170.499 350.130,167.188 352.830,167.188 307.892 C 167.188 266.852,166.889 267.222,200.000 267.222 C 233.133 267.222,232.813 266.822,232.813 308.080 C 232.813 352.880,229.424 350.131,284.257 349.826 L 323.182 349.609 326.409 347.373 C 328.425 345.975,330.379 343.645,331.615 341.165 L 333.594 337.193 333.594 272.803 L 333.594 208.412 336.672 211.193 C 352.944 225.894,376.741 207.486,363.884 190.143 C 361.201 186.523,210.982 53.216,207.648 51.496 C 203.774 49.497,195.957 49.515,192.188 51.532 " stroke="none" fill="#000000" fill-rule="evenodd"></path></g></svg>