<svg id="svg" xmlns="http://www.w3.org/2000/svg" xmlns:xlink="http://www.w3.org/1999/xlink" width="400" height="400" viewBox="0, 0, 400,400"><g id="svgg"><path id="path0" d="M168.157 1.558 C 162.048 5.283,162.506 -2.016,162.503 91.602 L 162.500 175.000 135.272 175.000 C 108.319 175.000,108.018 175.018,105.468 176.758 C 99.222 181.022,98.156 190.012,103.157 196.269 C 112.590 208.074,192.393 298.280,194.085 299.051 C 196.763 300.272,203.237 300.272,205.915 299.051 C 207.607 298.280,287.410 208.074,296.843 196.269 C 301.844 190.012,300.778 181.022,294.532 176.758 C 291.982 175.018,291.681 175.000,264.728 175.000 L 237.500 175.000 237.497 91.602 C 237.494 -2.016,237.952 5.283,231.843 1.558 C 227.901 -0.845,172.099 -0.845,168.157 1.558 M12.680 328.711 L 12.891 382.422 14.697 386.090 C 17.003 390.771,21.729 395.497,26.410 397.803 L 30.078 399.609 200.000 399.609 L 369.922 399.609 373.590 397.803 C 378.271 395.497,382.997 390.771,385.303 386.090 L 387.109 382.422 387.320 328.711 L 387.531 275.000 362.516 275.000 L 337.500 275.000 337.500 312.500 L 337.500 350.000 200.000 350.000 L 62.500 350.000 62.500 312.500 L 62.500 275.000 37.484 275.000 L 12.469 275.000 12.680 328.711 " stroke="none" fill="#3ca9c2" fill-rule="evenodd"></path></g></svg>