<svg id="svg" version="1.1" xmlns="http://www.w3.org/2000/svg" xmlns:xlink="http://www.w3.org/1999/xlink" width="400" height="400" viewBox="0, 0, 400,400"><g id="svgg"><path id="path0" d="M51.953 76.057 C 50.234 76.578,48.909 77.343,49.008 77.759 C 49.344 79.166,175.359 197.812,179.297 200.429 C 190.952 208.174,208.617 208.394,220.313 200.941 C 222.246 199.708,252.788 171.490,288.183 138.234 L 352.539 77.769 349.902 76.580 C 346.361 74.983,57.180 74.476,51.953 76.057 M27.522 98.185 L 25.391 102.734 25.183 198.391 C 24.997 284.000,25.106 294.504,26.221 298.391 C 29.544 309.979,39.290 319.921,50.852 323.520 C 58.282 325.832,341.718 325.832,349.148 323.520 C 360.710 319.921,370.456 309.979,373.779 298.391 C 374.894 294.504,375.003 284.000,374.817 198.391 L 374.609 102.734 372.755 98.633 C 371.736 96.377,370.629 94.531,370.296 94.531 C 369.962 94.531,340.607 121.865,305.062 155.273 C 269.516 188.682,238.279 217.552,235.646 219.429 C 217.562 232.326,194.195 234.294,173.828 224.636 C 163.694 219.831,166.195 222.045,95.944 155.672 C 60.484 122.171,31.063 94.508,30.562 94.199 C 29.974 93.835,28.901 95.241,27.522 98.185 " stroke="none" fill="#303030" fill-rule="evenodd"></path></g></svg>