<svg xmlns="http://www.w3.org/2000/svg" version="1.1" xmlns:xlink="http://www.w3.org/1999/xlink"
    xmlns:svgjs="http://svgjs.dev/svgjs" viewBox="0 0 2400 800" opacity="1">
    <defs>
        <linearGradient x1="50%" y1="0%" x2="50%" y2="100%" id="sssurf-grad">
            <stop stop-color="#ffffffff" stop-opacity="1" offset="0%"></stop>
            <stop stop-color="#ffffffff" stop-opacity="1" offset="100%"></stop>
        </linearGradient>
    </defs>
    <g fill="url(#sssurf-grad)" transform="matrix(1,0,0,1,2.0377197265625,20)">
        <path
            d="M-10,10C117.08333333333334,12.291666666666666,347.9166666666667,32.66666666666667,600,21C852.0833333333333,9.333333333333332,950,-48.5,1200,-46C1450,-43.5,1550,31.541666666666668,1800,33C2050,34.458333333333336,2222.9166666666665,-115.45833333333333,2400,-39C2577.0833333333335,37.45833333333333,3254.1666666666665,204.375,2650,400C2045.8333333333335,595.625,156.25,795.8333333333334,-500,900"
            transform="matrix(1,0,0,1,0,42)" opacity="0.05"></path>
        <path
            d="M-10,10C117.08333333333334,12.291666666666666,347.9166666666667,32.66666666666667,600,21C852.0833333333333,9.333333333333332,950,-48.5,1200,-46C1450,-43.5,1550,31.541666666666668,1800,33C2050,34.458333333333336,2222.9166666666665,-115.45833333333333,2400,-39C2577.0833333333335,37.45833333333333,3254.1666666666665,204.375,2650,400C2045.8333333333335,595.625,156.25,795.8333333333334,-500,900"
            transform="matrix(1,0,0,1,0,84)" opacity="0.37"></path>
        <path
            d="M-10,10C117.08333333333334,12.291666666666666,347.9166666666667,32.66666666666667,600,21C852.0833333333333,9.333333333333332,950,-48.5,1200,-46C1450,-43.5,1550,31.541666666666668,1800,33C2050,34.458333333333336,2222.9166666666665,-115.45833333333333,2400,-39C2577.0833333333335,37.45833333333333,3254.1666666666665,204.375,2650,400C2045.8333333333335,595.625,156.25,795.8333333333334,-500,900"
            transform="matrix(1,0,0,1,0,126)" opacity="0.68"></path>
        <path
            d="M-10,10C117.08333333333334,12.291666666666666,347.9166666666667,32.66666666666667,600,21C852.0833333333333,9.333333333333332,950,-48.5,1200,-46C1450,-43.5,1550,31.541666666666668,1800,33C2050,34.458333333333336,2222.9166666666665,-115.45833333333333,2400,-39C2577.0833333333335,37.45833333333333,3254.1666666666665,204.375,2650,400C2045.8333333333335,595.625,156.25,795.8333333333334,-500,900"
            transform="matrix(1,0,0,1,0,168)" opacity="1.00"></path>
    </g>
</svg>