<svg xmlns="http://www.w3.org/2000/svg" version="1.1" xmlns:xlink="http://www.w3.org/1999/xlink"
    xmlns:svgjs="http://svgjs.dev/svgjs" viewBox="0 0 2400 800" opacity="1">
    <defs>
        <linearGradient x1="50%" y1="0%" x2="50%" y2="100%" id="sssurf-grad">
            <stop stop-color="#303030ff" stop-opacity="1" offset="0%"></stop>
            <stop stop-color="#303030" stop-opacity="1" offset="100%"></stop>
        </linearGradient>
    </defs>
    <g fill="url(#sssurf-grad)" transform="matrix(1,0,0,1,2.0377197265625,20)">
        <path
            d="M-10,10C117.08333333333334,18.958333333333336,347.9166666666667,68.20833333333333,600,53C852.0833333333333,37.79166666666667,950,-64.66666666666667,1200,-63C1450,-61.333333333333336,1550,58.708333333333336,1800,61C2050,63.291666666666664,2222.9166666666665,-122.625,2400,-52C2577.0833333333335,18.625,3254.1666666666665,201.66666666666669,2650,400C2045.8333333333335,598.3333333333333,156.25,795.8333333333334,-500,900"
            transform="matrix(1,0,0,1,0,42)" opacity="0.05"></path>
        <path
            d="M-10,10C117.08333333333334,18.958333333333336,347.9166666666667,68.20833333333333,600,53C852.0833333333333,37.79166666666667,950,-64.66666666666667,1200,-63C1450,-61.333333333333336,1550,58.708333333333336,1800,61C2050,63.291666666666664,2222.9166666666665,-122.625,2400,-52C2577.0833333333335,18.625,3254.1666666666665,201.66666666666669,2650,400C2045.8333333333335,598.3333333333333,156.25,795.8333333333334,-500,900"
            transform="matrix(1,0,0,1,0,84)" opacity="0.37"></path>
        <path
            d="M-10,10C117.08333333333334,18.958333333333336,347.9166666666667,68.20833333333333,600,53C852.0833333333333,37.79166666666667,950,-64.66666666666667,1200,-63C1450,-61.333333333333336,1550,58.708333333333336,1800,61C2050,63.291666666666664,2222.9166666666665,-122.625,2400,-52C2577.0833333333335,18.625,3254.1666666666665,201.66666666666669,2650,400C2045.8333333333335,598.3333333333333,156.25,795.8333333333334,-500,900"
            transform="matrix(1,0,0,1,0,126)" opacity="0.68"></path>
        <path
            d="M-10,10C117.08333333333334,18.958333333333336,347.9166666666667,68.20833333333333,600,53C852.0833333333333,37.79166666666667,950,-64.66666666666667,1200,-63C1450,-61.333333333333336,1550,58.708333333333336,1800,61C2050,63.291666666666664,2222.9166666666665,-122.625,2400,-52C2577.0833333333335,18.625,3254.1666666666665,201.66666666666669,2650,400C2045.8333333333335,598.3333333333333,156.25,795.8333333333334,-500,900"
            transform="matrix(1,0,0,1,0,168)" opacity="1.00"></path>
    </g>
</svg>