<svg xmlns="http://www.w3.org/2000/svg" version="1.1" xmlns:xlink="http://www.w3.org/1999/xlink"
    xmlns:svgjs="http://svgjs.dev/svgjs" viewBox="0 0 2400 800">
    <defs>
        <linearGradient x1="50%" y1="0%" x2="50%" y2="100%" id="sssurf-grad">
            <stop stop-color="#303030ff" stop-opacity="1" offset="0%"></stop>
            <stop stop-color="#303030ff" stop-opacity="1" offset="100%"></stop>
        </linearGradient>
    </defs>
    <g fill="url(#sssurf-grad)" transform="matrix(1,0,0,1,5.82373046875,250)">
        <path
            d="M-10,10C75.41666666666666,15,231.25,44,400,34C568.75,24,633.3333333333333,-38.625,800,-38C966.6666666666667,-37.375,1033.3333333333333,32.833333333333336,1200,37C1366.6666666666667,41.166666666666664,1433.3333333333333,-16.75,1600,-18C1766.6666666666667,-19.25,1833.3333333333333,32.458333333333336,2000,31C2166.6666666666665,29.541666666666668,2264.5833333333335,-101.875,2400,-25C2535.4166666666665,51.875,3254.1666666666665,207.29166666666669,2650,400C2045.8333333333335,592.7083333333333,156.25,795.8333333333334,-500,900"
            transform="matrix(1,0,0,1,0,42)" opacity="0.05"></path>
        <path
            d="M-10,10C75.41666666666666,15,231.25,44,400,34C568.75,24,633.3333333333333,-38.625,800,-38C966.6666666666667,-37.375,1033.3333333333333,32.833333333333336,1200,37C1366.6666666666667,41.166666666666664,1433.3333333333333,-16.75,1600,-18C1766.6666666666667,-19.25,1833.3333333333333,32.458333333333336,2000,31C2166.6666666666665,29.541666666666668,2264.5833333333335,-101.875,2400,-25C2535.4166666666665,51.875,3254.1666666666665,207.29166666666669,2650,400C2045.8333333333335,592.7083333333333,156.25,795.8333333333334,-500,900"
            transform="matrix(1,0,0,1,0,84)" opacity="0.37"></path>
        <path
            d="M-10,10C75.41666666666666,15,231.25,44,400,34C568.75,24,633.3333333333333,-38.625,800,-38C966.6666666666667,-37.375,1033.3333333333333,32.833333333333336,1200,37C1366.6666666666667,41.166666666666664,1433.3333333333333,-16.75,1600,-18C1766.6666666666667,-19.25,1833.3333333333333,32.458333333333336,2000,31C2166.6666666666665,29.541666666666668,2264.5833333333335,-101.875,2400,-25C2535.4166666666665,51.875,3254.1666666666665,207.29166666666669,2650,400C2045.8333333333335,592.7083333333333,156.25,795.8333333333334,-500,900"
            transform="matrix(1,0,0,1,0,126)" opacity="0.68"></path>
                    <path
            d="M-10,10C75.41666666666666,15,231.25,44,400,34C568.75,24,633.3333333333333,-38.625,800,-38C966.6666666666667,-37.375,1033.3333333333333,32.833333333333336,1200,37C1366.6666666666667,41.166666666666664,1433.3333333333333,-16.75,1600,-18C1766.6666666666667,-19.25,1833.3333333333333,32.458333333333336,2000,31C2166.6666666666665,29.541666666666668,2264.5833333333335,-101.875,2400,-25C2535.4166666666665,51.875,3254.1666666666665,207.29166666666669,2650,400C2045.8333333333335,592.7083333333333,156.25,795.8333333333334,-500,900"
            transform="matrix(1,0,0,1,0,168)" opacity="1.00"></path>
    </g>
</svg>