<svg id="svg" version="1.1" xmlns="http://www.w3.org/2000/svg" xmlns:xlink="http://www.w3.org/1999/xlink" width="400" height="400" viewBox="0, 0, 400,400"><g id="svgg"><path id="path0" d="M240.276 29.774 C 239.819 30.121,239.708 30.420,239.976 30.585 C 240.560 30.946,240.576 368.864,239.992 369.448 C 239.714 369.726,239.919 370.036,240.632 370.417 C 241.544 370.905,241.740 370.899,242.140 370.373 C 242.393 370.039,243.080 369.807,243.667 369.857 C 244.280 369.909,244.826 369.710,244.949 369.389 C 245.098 369.000,245.609 368.889,246.644 369.021 C 247.622 369.147,248.349 369.008,248.785 368.614 C 249.148 368.285,249.845 368.093,250.333 368.187 C 250.829 368.283,251.118 368.191,250.987 367.979 C 250.856 367.767,251.390 367.600,252.200 367.600 C 253.203 367.600,253.558 367.456,253.358 367.132 C 253.165 366.819,253.285 366.747,253.722 366.915 C 254.081 367.052,254.466 367.017,254.578 366.836 C 254.689 366.655,255.254 366.598,255.833 366.708 C 256.428 366.822,257.014 366.701,257.183 366.428 C 257.346 366.163,257.732 365.909,258.040 365.862 C 258.348 365.816,258.793 365.657,259.029 365.509 C 259.265 365.362,260.199 365.197,261.105 365.144 C 262.011 365.090,262.662 364.901,262.553 364.723 C 262.443 364.545,262.983 364.400,263.753 364.400 C 264.523 364.400,265.264 364.220,265.400 364.000 C 265.536 363.780,266.267 363.600,267.024 363.600 C 267.781 363.600,268.400 363.420,268.400 363.200 C 268.400 362.980,269.008 362.800,269.751 362.800 C 270.494 362.800,271.305 362.555,271.554 362.255 C 271.803 361.956,272.455 361.760,273.003 361.820 C 273.551 361.880,274.000 361.765,274.000 361.565 C 274.000 361.364,274.349 361.200,274.776 361.200 C 275.203 361.200,275.664 361.020,275.800 360.800 C 275.936 360.580,276.937 360.400,278.024 360.400 C 279.111 360.400,280.000 360.253,280.000 360.072 C 280.000 359.892,280.911 359.496,282.025 359.193 C 283.139 358.890,284.140 358.497,284.249 358.321 C 284.358 358.144,284.752 358.003,285.124 358.006 C 285.707 358.011,285.717 358.066,285.200 358.400 C 284.870 358.613,284.780 358.785,285.000 358.781 C 285.220 358.778,285.731 358.524,286.136 358.217 C 286.540 357.911,287.211 357.725,287.627 357.805 C 288.043 357.885,288.492 357.775,288.625 357.559 C 288.758 357.344,289.191 357.270,289.586 357.396 C 290.010 357.530,290.394 357.391,290.522 357.058 C 290.658 356.705,291.200 356.532,291.970 356.597 C 292.646 356.655,293.200 356.534,293.200 356.327 C 293.200 356.121,293.368 356.056,293.572 356.183 C 293.777 356.309,294.059 356.229,294.198 356.003 C 294.337 355.778,294.893 355.674,295.434 355.772 C 295.974 355.870,296.324 355.800,296.210 355.617 C 295.889 355.096,297.078 354.799,298.504 355.045 C 299.492 355.214,299.657 355.166,299.200 354.840 C 298.729 354.504,298.913 354.411,300.051 354.406 C 300.849 354.403,302.162 354.124,302.969 353.787 C 303.775 353.450,304.635 353.298,304.879 353.449 C 305.148 353.615,305.211 353.541,305.038 353.262 C 304.773 352.833,305.327 352.643,306.696 352.692 C 306.968 352.702,307.093 352.550,306.972 352.355 C 306.851 352.160,306.943 352.000,307.176 352.000 C 307.409 352.000,307.603 352.225,307.606 352.500 C 307.611 352.863,307.708 352.849,307.961 352.450 C 308.152 352.147,308.824 351.903,309.455 351.908 C 310.085 351.912,310.902 351.648,311.271 351.322 C 311.696 350.946,312.266 350.831,312.821 351.007 C 313.417 351.196,313.612 351.143,313.426 350.843 C 313.255 350.565,313.518 350.400,314.131 350.400 C 314.669 350.400,315.602 350.144,316.204 349.832 C 316.807 349.519,317.565 349.365,317.890 349.490 C 318.215 349.615,318.621 349.489,318.794 349.210 C 318.968 348.928,319.834 348.714,320.753 348.727 C 321.659 348.740,322.400 348.581,322.400 348.375 C 322.400 348.169,322.760 348.000,323.200 348.000 C 323.640 348.000,324.000 347.839,324.000 347.642 C 324.000 347.445,324.720 347.175,325.600 347.042 C 326.480 346.909,327.965 346.688,328.900 346.551 C 329.835 346.415,330.699 346.147,330.820 345.957 C 330.941 345.766,331.617 345.548,332.322 345.470 C 333.027 345.393,333.722 345.211,333.868 345.065 C 334.014 344.919,334.643 344.800,335.267 344.800 C 335.890 344.800,336.400 344.620,336.400 344.400 C 336.400 344.180,336.940 344.000,337.600 344.000 C 338.260 344.000,338.800 343.809,338.800 343.576 C 338.800 343.343,338.980 343.264,339.200 343.400 C 339.466 343.565,339.600 295.663,339.600 200.000 C 339.600 104.337,339.466 56.435,339.200 56.600 C 338.980 56.736,338.800 56.657,338.800 56.424 C 338.800 56.191,338.260 56.000,337.600 56.000 C 336.940 56.000,336.400 55.820,336.400 55.600 C 336.400 55.380,335.890 55.200,335.267 55.200 C 334.643 55.200,334.014 55.081,333.868 54.935 C 333.722 54.789,333.027 54.607,332.322 54.530 C 331.617 54.452,330.941 54.234,330.820 54.043 C 330.699 53.853,329.790 53.581,328.800 53.439 C 324.638 52.842,324.000 52.698,324.000 52.358 C 324.000 52.161,323.640 52.000,323.200 52.000 C 322.760 52.000,322.400 51.831,322.400 51.625 C 322.400 51.419,321.659 51.260,320.753 51.273 C 319.834 51.286,318.968 51.072,318.794 50.790 C 318.621 50.511,318.215 50.385,317.890 50.510 C 317.565 50.635,316.807 50.481,316.204 50.168 C 315.602 49.856,314.669 49.600,314.131 49.600 C 313.518 49.600,313.255 49.435,313.426 49.157 C 313.612 48.857,313.417 48.804,312.821 48.993 C 312.266 49.169,311.696 49.054,311.271 48.678 C 310.902 48.352,310.085 48.088,309.455 48.092 C 308.824 48.097,308.152 47.852,307.961 47.550 C 307.708 47.151,307.611 47.137,307.606 47.500 C 307.603 47.775,307.409 48.000,307.176 48.000 C 306.943 48.000,306.851 47.840,306.972 47.645 C 307.093 47.450,306.968 47.298,306.696 47.308 C 305.327 47.357,304.773 47.167,305.038 46.738 C 305.211 46.459,305.148 46.385,304.879 46.551 C 304.635 46.702,303.775 46.550,302.969 46.213 C 302.162 45.876,300.849 45.597,300.051 45.594 C 298.913 45.589,298.729 45.496,299.200 45.160 C 299.657 44.834,299.492 44.786,298.504 44.955 C 297.078 45.201,295.889 44.904,296.210 44.383 C 296.324 44.200,295.974 44.130,295.434 44.228 C 294.893 44.326,294.337 44.222,294.198 43.997 C 294.059 43.771,293.777 43.691,293.572 43.817 C 293.368 43.944,293.200 43.879,293.200 43.673 C 293.200 43.466,292.646 43.345,291.970 43.403 C 291.212 43.467,290.658 43.295,290.527 42.954 C 290.410 42.649,290.143 42.400,289.934 42.400 C 289.724 42.400,289.675 42.598,289.825 42.840 C 289.987 43.103,289.716 43.070,289.148 42.758 C 288.627 42.471,287.750 42.172,287.200 42.093 C 286.650 42.015,286.029 41.782,285.820 41.575 C 285.611 41.369,285.251 41.203,285.020 41.206 C 284.789 41.209,284.870 41.387,285.200 41.600 C 285.717 41.934,285.707 41.989,285.124 41.994 C 284.752 41.997,284.358 41.856,284.249 41.679 C 284.140 41.503,283.139 41.110,282.025 40.807 C 280.911 40.504,280.000 40.108,280.000 39.928 C 280.000 39.747,279.111 39.600,278.024 39.600 C 276.937 39.600,275.936 39.420,275.800 39.200 C 275.664 38.980,275.203 38.800,274.776 38.800 C 274.349 38.800,274.000 38.636,274.000 38.435 C 274.000 38.235,273.551 38.120,273.003 38.180 C 272.455 38.240,271.803 38.044,271.554 37.745 C 271.305 37.445,270.494 37.200,269.751 37.200 C 269.008 37.200,268.400 37.020,268.400 36.800 C 268.400 36.580,267.781 36.400,267.024 36.400 C 266.267 36.400,265.536 36.220,265.400 36.000 C 265.264 35.780,264.523 35.600,263.753 35.600 C 262.983 35.600,262.443 35.455,262.553 35.277 C 262.662 35.099,262.011 34.910,261.105 34.856 C 260.199 34.803,259.265 34.638,259.029 34.491 C 258.793 34.343,258.348 34.184,258.040 34.138 C 257.732 34.091,257.346 33.837,257.183 33.572 C 257.014 33.299,256.428 33.178,255.833 33.292 C 255.254 33.402,254.689 33.345,254.578 33.164 C 254.466 32.983,254.081 32.948,253.722 33.085 C 253.285 33.253,253.165 33.181,253.358 32.868 C 253.558 32.544,253.203 32.400,252.200 32.400 C 251.390 32.400,250.856 32.233,250.987 32.021 C 251.118 31.809,250.829 31.717,250.333 31.813 C 249.845 31.907,249.165 31.737,248.823 31.434 C 248.480 31.132,247.685 30.888,247.055 30.892 C 246.424 30.897,245.752 30.652,245.561 30.350 C 245.273 29.896,245.210 29.905,245.200 30.400 C 245.191 30.824,245.099 30.861,244.886 30.525 C 244.720 30.264,244.102 30.103,243.513 30.168 C 242.888 30.236,242.355 30.059,242.233 29.743 C 241.970 29.056,241.207 29.069,240.276 29.774 M239.798 200.000 C 239.798 293.170,239.844 331.285,239.900 284.700 C 239.956 238.115,239.956 161.885,239.900 115.300 C 239.844 68.715,239.798 106.830,239.798 200.000 M133.203 118.400 L 133.195 179.200 152.898 179.247 C 163.734 179.273,172.748 179.269,172.930 179.237 C 173.111 179.206,173.145 179.365,173.006 179.590 C 172.867 179.816,172.988 180.001,173.276 180.003 C 174.660 180.011,174.800 181.825,174.800 199.703 C 174.800 211.297,174.936 217.163,175.200 217.000 C 176.053 216.473,175.528 217.279,173.900 218.997 L 172.200 220.791 152.700 220.810 C 135.277 220.827,131.861 220.993,133.700 221.735 C 134.098 221.896,134.098 221.943,133.698 221.968 C 133.297 221.994,133.197 234.160,133.203 282.200 L 133.210 342.400 183.205 342.400 L 233.200 342.400 233.200 200.000 L 233.200 57.600 183.205 57.600 L 133.210 57.600 133.203 118.400 M92.178 171.744 C 92.040 172.293,91.665 172.843,91.343 172.966 C 91.016 173.092,90.866 173.017,91.003 172.795 C 91.137 172.578,91.095 172.400,90.910 172.400 C 90.724 172.400,90.247 172.951,89.850 173.624 C 89.452 174.297,88.693 175.013,88.163 175.214 C 87.633 175.415,87.200 175.795,87.200 176.057 C 87.200 176.319,87.089 176.422,86.952 176.286 C 86.670 176.003,85.600 176.961,85.600 177.497 C 85.600 177.692,84.952 178.161,84.159 178.539 C 83.367 178.917,82.626 179.580,82.512 180.013 C 82.399 180.446,81.968 180.800,81.553 180.800 C 81.138 180.800,80.800 181.080,80.800 181.424 C 80.800 181.767,80.616 181.933,80.390 181.794 C 80.165 181.655,80.030 181.752,80.090 182.010 C 80.151 182.268,79.390 183.059,78.400 183.766 C 77.410 184.474,76.541 185.309,76.468 185.623 C 76.309 186.309,75.561 186.823,75.119 186.550 C 74.944 186.442,74.800 186.723,74.800 187.176 C 74.800 187.629,74.573 188.000,74.296 188.000 C 74.019 188.000,73.585 188.332,73.332 188.738 C 73.079 189.143,72.225 189.782,71.436 190.156 C 70.646 190.531,70.000 191.020,70.000 191.242 C 70.000 191.465,69.792 191.519,69.538 191.362 C 69.270 191.196,69.184 191.251,69.334 191.493 C 69.563 191.863,68.922 192.719,68.400 192.740 C 67.539 192.775,66.886 193.358,67.095 193.903 C 67.280 194.387,67.168 194.473,66.625 194.265 C 66.078 194.055,65.969 194.142,66.160 194.640 C 66.336 195.099,66.238 195.223,65.825 195.065 C 65.449 194.921,65.314 195.032,65.446 195.376 C 65.569 195.697,65.174 196.122,64.454 196.440 C 63.796 196.731,63.353 197.124,63.469 197.312 C 63.585 197.500,63.347 197.596,62.940 197.527 C 62.429 197.439,62.219 197.626,62.260 198.127 C 62.299 198.600,62.124 198.780,61.760 198.640 C 61.452 198.522,61.200 198.610,61.200 198.836 C 61.200 199.062,61.020 199.136,60.800 199.000 C 60.566 198.855,60.400 199.270,60.400 200.000 C 60.400 200.730,60.566 201.145,60.800 201.000 C 61.020 200.864,61.200 200.938,61.200 201.164 C 61.200 201.390,61.452 201.478,61.760 201.360 C 62.067 201.242,62.455 201.366,62.621 201.635 C 62.826 201.965,62.757 202.021,62.410 201.806 C 62.066 201.594,61.960 201.673,62.090 202.044 C 62.196 202.350,62.597 202.543,62.982 202.473 C 63.366 202.404,63.585 202.500,63.469 202.688 C 63.353 202.876,63.796 203.269,64.454 203.560 C 65.174 203.878,65.569 204.303,65.446 204.624 C 65.314 204.968,65.449 205.079,65.825 204.935 C 66.238 204.777,66.336 204.901,66.160 205.360 C 65.969 205.858,66.078 205.945,66.625 205.735 C 67.168 205.527,67.280 205.613,67.095 206.097 C 66.882 206.651,67.227 206.995,68.400 207.400 C 69.486 207.775,70.000 208.178,70.000 208.653 C 70.000 208.965,70.452 209.392,71.006 209.602 C 72.154 210.039,74.800 212.555,74.800 213.210 C 74.800 213.451,74.944 213.558,75.119 213.450 C 75.564 213.175,76.310 213.694,76.468 214.389 C 76.541 214.709,77.365 215.489,78.300 216.123 C 79.235 216.757,80.000 217.539,80.000 217.861 C 80.000 218.184,80.180 218.336,80.400 218.200 C 80.620 218.064,80.800 218.233,80.800 218.576 C 80.800 218.927,81.140 219.200,81.578 219.200 C 82.275 219.200,84.984 221.157,84.329 221.187 C 84.179 221.194,83.766 220.909,83.410 220.552 C 83.053 220.196,82.665 220.002,82.546 220.120 C 82.428 220.239,82.841 220.657,83.465 221.049 C 84.089 221.442,85.289 222.446,86.131 223.281 C 86.973 224.117,87.890 224.800,88.169 224.800 C 88.877 224.800,90.066 226.194,89.701 226.597 C 89.535 226.779,89.625 226.799,89.900 226.641 C 90.209 226.463,90.400 226.591,90.400 226.976 C 90.400 227.319,90.591 227.600,90.824 227.600 C 91.057 227.600,91.133 227.375,90.993 227.100 C 90.853 226.825,91.099 227.007,91.538 227.505 C 91.977 228.003,92.407 228.621,92.492 228.877 C 92.579 229.136,92.949 229.228,93.324 229.085 C 93.919 228.856,94.000 228.069,94.000 222.488 C 94.000 215.647,94.376 214.400,96.439 214.400 C 96.884 214.400,97.137 214.221,97.001 214.002 C 96.839 213.740,108.853 213.570,132.278 213.502 C 165.743 213.406,167.797 213.360,167.745 212.704 C 167.715 212.322,167.853 212.109,168.051 212.231 C 168.263 212.362,168.368 207.126,168.306 199.527 L 168.200 186.600 132.700 186.498 C 109.497 186.431,97.200 186.258,97.200 185.998 C 97.200 185.779,97.009 185.600,96.776 185.600 C 96.543 185.600,96.471 185.825,96.617 186.100 C 96.762 186.375,96.318 185.986,95.632 185.236 C 94.051 183.509,94.014 183.328,93.897 176.605 C 93.812 171.685,93.717 170.994,93.114 170.878 C 92.660 170.791,92.344 171.083,92.178 171.744 M268.700 176.891 C 268.975 176.914,269.113 177.021,269.006 177.127 C 268.703 177.430,270.121 178.373,270.900 178.387 C 271.285 178.394,271.600 178.676,271.600 179.013 C 271.600 179.349,271.869 179.728,272.198 179.854 C 272.526 179.981,272.716 180.212,272.619 180.369 C 272.522 180.526,272.793 180.907,273.221 181.215 C 273.650 181.524,274.000 181.979,274.000 182.226 C 274.000 182.474,274.360 183.002,274.800 183.400 C 275.643 184.163,275.911 185.040,275.160 184.575 C 274.851 184.384,274.855 184.556,275.174 185.152 C 275.424 185.618,275.777 186.000,275.959 186.000 C 276.142 186.000,276.256 186.405,276.214 186.900 C 276.171 187.395,276.380 188.205,276.677 188.700 C 276.975 189.195,277.102 189.600,276.960 189.600 C 276.818 189.600,276.949 189.905,277.251 190.277 C 277.703 190.834,277.705 190.896,277.259 190.628 C 276.834 190.372,276.844 190.507,277.302 191.251 C 277.623 191.773,277.837 192.874,277.776 193.697 C 277.715 194.520,277.850 195.307,278.076 195.447 C 278.335 195.607,278.287 195.824,277.943 196.038 C 277.502 196.312,277.494 196.528,277.900 197.182 C 278.474 198.108,278.580 202.241,278.039 202.576 C 277.840 202.699,277.717 203.989,277.766 205.444 C 277.825 207.204,277.679 208.264,277.328 208.615 C 276.659 209.284,276.642 209.742,277.300 209.347 C 277.640 209.143,277.624 209.263,277.251 209.723 C 276.949 210.095,276.818 210.400,276.960 210.400 C 277.102 210.400,276.975 210.805,276.677 211.300 C 276.380 211.795,276.171 212.605,276.214 213.100 C 276.256 213.595,276.142 214.000,275.959 214.000 C 275.777 214.000,275.424 214.382,275.174 214.848 C 274.855 215.444,274.851 215.616,275.160 215.425 C 275.911 214.960,275.643 215.837,274.800 216.600 C 274.360 216.998,274.000 217.489,274.000 217.691 C 274.000 217.892,273.728 218.329,273.396 218.661 C 273.064 218.993,272.895 219.430,273.020 219.632 C 273.226 219.965,272.674 220.170,271.900 220.047 C 271.735 220.021,271.621 220.135,271.647 220.300 C 271.782 221.150,271.532 221.600,270.926 221.600 C 270.555 221.600,269.859 221.968,269.380 222.419 C 268.341 223.395,262.792 223.776,262.497 222.891 C 262.407 222.621,262.078 222.400,261.767 222.400 C 261.455 222.400,261.197 222.175,261.194 221.900 C 261.190 221.567,261.058 221.600,260.800 222.000 C 260.479 222.497,260.411 222.461,260.406 221.795 C 260.403 221.350,260.000 220.813,259.507 220.595 C 259.016 220.378,258.415 219.796,258.172 219.303 C 257.928 218.809,257.430 218.075,257.064 217.670 C 256.698 217.266,256.519 216.815,256.666 216.668 C 256.813 216.520,256.612 216.400,256.220 216.400 C 255.708 216.400,255.565 216.178,255.712 215.615 C 255.825 215.183,255.658 214.614,255.341 214.351 C 255.023 214.087,254.859 213.624,254.975 213.321 C 255.091 213.018,254.946 212.678,254.653 212.565 C 254.321 212.438,254.193 211.972,254.314 211.337 C 254.422 210.775,254.302 210.187,254.049 210.030 C 253.796 209.874,253.553 208.910,253.508 207.889 C 253.464 206.868,253.311 206.220,253.169 206.450 C 252.706 207.199,252.566 205.508,252.635 200.000 C 252.721 193.119,252.738 192.883,253.120 193.484 C 253.293 193.757,253.463 193.158,253.508 192.111 C 253.553 191.090,253.796 190.126,254.049 189.970 C 254.302 189.813,254.422 189.225,254.314 188.663 C 254.186 187.994,254.321 187.562,254.704 187.415 C 255.131 187.252,255.174 187.051,254.865 186.679 C 254.553 186.302,254.638 186.044,255.187 185.701 C 255.673 185.397,255.859 184.949,255.720 184.417 C 255.568 183.834,255.699 183.600,256.177 183.600 C 256.546 183.600,256.749 183.440,256.628 183.245 C 256.507 183.050,256.680 182.665,257.012 182.390 C 257.343 182.115,257.902 181.285,258.253 180.545 C 258.645 179.719,259.182 179.200,259.646 179.200 C 260.133 179.200,260.400 178.917,260.400 178.400 C 260.400 177.960,260.649 177.600,260.954 177.600 C 261.259 177.600,261.991 177.350,262.580 177.044 C 263.545 176.543,264.393 176.522,268.700 176.891 M264.084 183.839 C 263.801 184.148,263.711 184.403,263.884 184.406 C 264.058 184.409,264.020 184.544,263.800 184.706 C 263.580 184.868,263.090 185.540,262.710 186.200 C 262.331 186.860,261.852 187.361,261.647 187.312 C 261.442 187.264,261.325 187.534,261.386 187.912 C 261.447 188.291,261.295 188.853,261.049 189.162 C 260.802 189.470,260.576 190.280,260.548 190.962 C 260.449 193.298,260.414 193.441,260.070 192.899 C 259.895 192.624,259.763 193.929,259.776 195.799 C 259.789 197.670,259.665 199.200,259.500 199.200 C 259.335 199.200,259.200 199.560,259.200 200.000 C 259.200 200.440,259.335 200.800,259.500 200.800 C 259.665 200.800,259.780 201.925,259.756 203.300 C 259.732 204.675,259.889 206.025,260.105 206.300 C 260.369 206.636,260.351 206.800,260.049 206.800 C 259.802 206.800,259.600 206.980,259.600 207.200 C 259.600 207.420,259.821 207.555,260.092 207.500 C 260.416 207.434,260.573 207.913,260.552 208.900 C 260.529 209.966,260.689 210.400,261.107 210.400 C 261.472 210.400,261.623 210.668,261.507 211.112 C 261.405 211.503,261.579 212.065,261.895 212.360 C 262.210 212.654,262.380 213.234,262.272 213.648 C 262.093 214.331,262.442 214.592,263.330 214.437 C 263.511 214.406,263.545 214.565,263.406 214.790 C 263.267 215.016,263.354 215.200,263.600 215.200 C 263.846 215.200,263.965 215.335,263.866 215.500 C 263.766 215.665,263.935 216.032,264.242 216.316 C 264.637 216.680,264.800 216.695,264.800 216.367 C 264.800 216.047,265.011 216.073,265.477 216.451 C 265.937 216.824,266.057 216.840,265.853 216.500 C 265.668 216.192,265.774 216.000,266.129 216.000 C 266.828 216.000,268.931 213.329,269.099 212.227 C 269.166 211.791,269.351 211.337,269.510 211.217 C 269.670 211.098,269.859 210.730,269.930 210.400 C 270.002 210.070,270.200 209.749,270.372 209.686 C 270.543 209.623,270.601 209.140,270.500 208.611 C 270.399 208.083,270.566 207.144,270.871 206.525 C 271.591 205.065,271.569 195.153,270.842 193.401 C 270.568 192.742,270.422 191.797,270.517 191.301 C 270.612 190.805,270.534 190.400,270.345 190.400 C 270.155 190.400,270.000 190.040,270.000 189.600 C 270.000 189.160,269.834 188.800,269.632 188.800 C 269.429 188.800,269.145 188.258,268.999 187.597 C 268.832 186.837,268.562 186.492,268.267 186.661 C 268.010 186.808,267.930 186.785,268.088 186.609 C 268.473 186.183,266.886 183.989,266.278 184.107 C 266.015 184.158,265.855 183.945,265.923 183.632 C 266.021 183.178,265.928 183.162,265.461 183.549 C 265.132 183.822,264.817 183.869,264.739 183.656 C 264.663 183.449,264.368 183.531,264.084 183.839 " stroke="none" fill="#3cacc4" fill-rule="evenodd"></path><path id="path1" d="M239.800 200.000 C 239.800 293.238,239.935 369.440,240.100 369.338 C 240.265 369.236,240.400 293.034,240.400 200.000 C 240.400 106.966,240.265 30.764,240.100 30.662 C 239.935 30.560,239.800 106.762,239.800 200.000 M264.800 183.626 C 264.800 183.858,264.968 183.944,265.172 183.817 C 265.377 183.691,265.660 183.773,265.800 184.000 C 265.940 184.227,266.207 184.319,266.393 184.204 C 266.578 184.090,267.116 184.492,267.587 185.098 C 268.396 186.138,268.417 186.144,267.964 185.200 C 267.275 183.767,264.800 182.536,264.800 183.626 M262.800 185.400 C 262.800 185.730,262.665 186.001,262.500 186.003 C 262.335 186.005,261.980 186.500,261.711 187.103 L 261.221 188.200 262.209 187.000 C 263.106 185.910,263.505 184.800,263.000 184.800 C 262.890 184.800,262.800 185.070,262.800 185.400 M75.829 185.829 C 75.049 186.609,75.030 186.840,75.769 186.557 C 76.082 186.436,76.436 186.082,76.557 185.769 C 76.840 185.030,76.609 185.049,75.829 185.829 M259.863 192.883 C 259.538 194.125,259.785 194.189,260.326 193.002 C 260.577 192.451,260.628 192.000,260.438 192.000 C 260.248 192.000,259.989 192.397,259.863 192.883 M64.638 195.800 C 63.999 196.350,63.639 196.800,63.838 196.800 C 64.037 196.799,64.723 196.349,65.362 195.800 C 66.001 195.250,66.361 194.800,66.162 194.800 C 65.963 194.801,65.277 195.251,64.638 195.800 M252.509 200.000 C 252.509 200.990,252.587 201.395,252.682 200.900 C 252.778 200.405,252.778 199.595,252.682 199.100 C 252.587 198.605,252.509 199.010,252.509 200.000 M64.638 204.200 C 65.277 204.749,65.963 205.199,66.162 205.200 C 66.361 205.200,66.001 204.750,65.362 204.200 C 64.723 203.651,64.037 203.201,63.838 203.200 C 63.639 203.200,63.999 203.650,64.638 204.200 M68.400 207.500 C 68.400 207.669,68.760 208.032,69.200 208.307 C 69.640 208.582,70.000 208.669,70.000 208.500 C 70.000 208.331,69.640 207.968,69.200 207.693 C 68.760 207.418,68.400 207.331,68.400 207.500 M261.733 212.971 C 261.985 213.505,262.255 213.878,262.332 213.801 C 262.581 213.553,261.958 212.000,261.611 212.000 C 261.426 212.000,261.481 212.437,261.733 212.971 M75.451 213.789 C 75.567 214.091,75.909 214.433,76.211 214.549 C 76.557 214.682,76.682 214.557,76.549 214.211 C 76.433 213.909,76.091 213.567,75.789 213.451 C 75.443 213.318,75.318 213.443,75.451 213.789 M267.378 215.024 C 266.950 215.587,266.195 216.075,265.700 216.109 C 265.205 216.143,264.800 216.311,264.800 216.483 C 264.800 217.421,267.287 216.174,267.956 214.900 C 268.582 213.708,268.339 213.760,267.378 215.024 M81.800 219.600 C 81.936 219.820,82.307 220.000,82.624 220.000 C 82.941 220.000,83.200 220.161,83.200 220.357 C 83.200 220.554,83.515 220.824,83.900 220.959 C 84.317 221.105,84.147 220.799,83.478 220.202 C 82.362 219.206,81.327 218.835,81.800 219.600 M271.674 220.314 C 270.422 221.620,270.848 221.915,272.132 220.632 C 272.691 220.073,273.025 219.555,272.874 219.482 C 272.723 219.408,272.183 219.783,271.674 220.314 M88.473 225.300 C 89.815 226.565,90.581 226.955,89.630 225.888 C 89.097 225.290,88.499 224.800,88.302 224.800 C 88.104 224.800,88.181 225.025,88.473 225.300 " stroke="none" fill="#40acc4" fill-rule="evenodd"></path><path id="path2" d="M239.800 200.000 C 239.800 293.238,239.935 369.440,240.100 369.338 C 240.265 369.236,240.400 293.034,240.400 200.000 C 240.400 106.966,240.265 30.764,240.100 30.662 C 239.935 30.560,239.800 106.762,239.800 200.000 M264.800 183.626 C 264.800 183.858,264.968 183.944,265.172 183.817 C 265.377 183.691,265.660 183.773,265.800 184.000 C 265.940 184.227,266.207 184.319,266.393 184.204 C 266.578 184.090,267.116 184.492,267.587 185.098 C 268.396 186.138,268.417 186.144,267.964 185.200 C 267.275 183.767,264.800 182.536,264.800 183.626 M262.800 185.400 C 262.800 185.730,262.665 186.001,262.500 186.003 C 262.335 186.005,261.980 186.500,261.711 187.103 L 261.221 188.200 262.209 187.000 C 263.106 185.910,263.505 184.800,263.000 184.800 C 262.890 184.800,262.800 185.070,262.800 185.400 M75.829 185.829 C 75.049 186.609,75.030 186.840,75.769 186.557 C 76.082 186.436,76.436 186.082,76.557 185.769 C 76.840 185.030,76.609 185.049,75.829 185.829 M259.863 192.883 C 259.538 194.125,259.785 194.189,260.326 193.002 C 260.577 192.451,260.628 192.000,260.438 192.000 C 260.248 192.000,259.989 192.397,259.863 192.883 M64.638 195.800 C 63.999 196.350,63.639 196.800,63.838 196.800 C 64.037 196.799,64.723 196.349,65.362 195.800 C 66.001 195.250,66.361 194.800,66.162 194.800 C 65.963 194.801,65.277 195.251,64.638 195.800 M252.509 200.000 C 252.509 200.990,252.587 201.395,252.682 200.900 C 252.778 200.405,252.778 199.595,252.682 199.100 C 252.587 198.605,252.509 199.010,252.509 200.000 M64.638 204.200 C 65.277 204.749,65.963 205.199,66.162 205.200 C 66.361 205.200,66.001 204.750,65.362 204.200 C 64.723 203.651,64.037 203.201,63.838 203.200 C 63.639 203.200,63.999 203.650,64.638 204.200 M68.400 207.500 C 68.400 207.669,68.760 208.032,69.200 208.307 C 69.640 208.582,70.000 208.669,70.000 208.500 C 70.000 208.331,69.640 207.968,69.200 207.693 C 68.760 207.418,68.400 207.331,68.400 207.500 M261.733 212.971 C 261.985 213.505,262.255 213.878,262.332 213.801 C 262.581 213.553,261.958 212.000,261.611 212.000 C 261.426 212.000,261.481 212.437,261.733 212.971 M75.451 213.789 C 75.567 214.091,75.909 214.433,76.211 214.549 C 76.557 214.682,76.682 214.557,76.549 214.211 C 76.433 213.909,76.091 213.567,75.789 213.451 C 75.443 213.318,75.318 213.443,75.451 213.789 M267.378 215.024 C 266.950 215.587,266.195 216.075,265.700 216.109 C 265.205 216.143,264.800 216.311,264.800 216.483 C 264.800 217.421,267.287 216.174,267.956 214.900 C 268.582 213.708,268.339 213.760,267.378 215.024 M81.800 219.600 C 81.936 219.820,82.307 220.000,82.624 220.000 C 82.941 220.000,83.200 220.161,83.200 220.357 C 83.200 220.554,83.515 220.824,83.900 220.959 C 84.317 221.105,84.147 220.799,83.478 220.202 C 82.362 219.206,81.327 218.835,81.800 219.600 M271.674 220.314 C 270.422 221.620,270.848 221.915,272.132 220.632 C 272.691 220.073,273.025 219.555,272.874 219.482 C 272.723 219.408,272.183 219.783,271.674 220.314 M88.473 225.300 C 89.815 226.565,90.581 226.955,89.630 225.888 C 89.097 225.290,88.499 224.800,88.302 224.800 C 88.104 224.800,88.181 225.025,88.473 225.300 " stroke="none" fill="#40acc4" fill-rule="evenodd"></path><path id="path3" d="M239.800 200.000 C 239.800 293.238,239.935 369.440,240.100 369.338 C 240.265 369.236,240.400 293.034,240.400 200.000 C 240.400 106.966,240.265 30.764,240.100 30.662 C 239.935 30.560,239.800 106.762,239.800 200.000 M264.800 183.626 C 264.800 183.858,264.968 183.944,265.172 183.817 C 265.377 183.691,265.660 183.773,265.800 184.000 C 265.940 184.227,266.207 184.319,266.393 184.204 C 266.578 184.090,267.116 184.492,267.587 185.098 C 268.396 186.138,268.417 186.144,267.964 185.200 C 267.275 183.767,264.800 182.536,264.800 183.626 M262.800 185.400 C 262.800 185.730,262.665 186.001,262.500 186.003 C 262.335 186.005,261.980 186.500,261.711 187.103 L 261.221 188.200 262.209 187.000 C 263.106 185.910,263.505 184.800,263.000 184.800 C 262.890 184.800,262.800 185.070,262.800 185.400 M75.829 185.829 C 75.049 186.609,75.030 186.840,75.769 186.557 C 76.082 186.436,76.436 186.082,76.557 185.769 C 76.840 185.030,76.609 185.049,75.829 185.829 M259.863 192.883 C 259.538 194.125,259.785 194.189,260.326 193.002 C 260.577 192.451,260.628 192.000,260.438 192.000 C 260.248 192.000,259.989 192.397,259.863 192.883 M64.638 195.800 C 63.999 196.350,63.639 196.800,63.838 196.800 C 64.037 196.799,64.723 196.349,65.362 195.800 C 66.001 195.250,66.361 194.800,66.162 194.800 C 65.963 194.801,65.277 195.251,64.638 195.800 M252.509 200.000 C 252.509 200.990,252.587 201.395,252.682 200.900 C 252.778 200.405,252.778 199.595,252.682 199.100 C 252.587 198.605,252.509 199.010,252.509 200.000 M64.638 204.200 C 65.277 204.749,65.963 205.199,66.162 205.200 C 66.361 205.200,66.001 204.750,65.362 204.200 C 64.723 203.651,64.037 203.201,63.838 203.200 C 63.639 203.200,63.999 203.650,64.638 204.200 M68.400 207.500 C 68.400 207.669,68.760 208.032,69.200 208.307 C 69.640 208.582,70.000 208.669,70.000 208.500 C 70.000 208.331,69.640 207.968,69.200 207.693 C 68.760 207.418,68.400 207.331,68.400 207.500 M261.733 212.971 C 261.985 213.505,262.255 213.878,262.332 213.801 C 262.581 213.553,261.958 212.000,261.611 212.000 C 261.426 212.000,261.481 212.437,261.733 212.971 M75.451 213.789 C 75.567 214.091,75.909 214.433,76.211 214.549 C 76.557 214.682,76.682 214.557,76.549 214.211 C 76.433 213.909,76.091 213.567,75.789 213.451 C 75.443 213.318,75.318 213.443,75.451 213.789 M267.378 215.024 C 266.950 215.587,266.195 216.075,265.700 216.109 C 265.205 216.143,264.800 216.311,264.800 216.483 C 264.800 217.421,267.287 216.174,267.956 214.900 C 268.582 213.708,268.339 213.760,267.378 215.024 M81.800 219.600 C 81.936 219.820,82.307 220.000,82.624 220.000 C 82.941 220.000,83.200 220.161,83.200 220.357 C 83.200 220.554,83.515 220.824,83.900 220.959 C 84.317 221.105,84.147 220.799,83.478 220.202 C 82.362 219.206,81.327 218.835,81.800 219.600 M271.674 220.314 C 270.422 221.620,270.848 221.915,272.132 220.632 C 272.691 220.073,273.025 219.555,272.874 219.482 C 272.723 219.408,272.183 219.783,271.674 220.314 M88.473 225.300 C 89.815 226.565,90.581 226.955,89.630 225.888 C 89.097 225.290,88.499 224.800,88.302 224.800 C 88.104 224.800,88.181 225.025,88.473 225.300 " stroke="none" fill="#40acc4" fill-rule="evenodd"></path><path id="path4" d="M239.800 200.000 C 239.800 293.238,239.935 369.440,240.100 369.338 C 240.265 369.236,240.400 293.034,240.400 200.000 C 240.400 106.966,240.265 30.764,240.100 30.662 C 239.935 30.560,239.800 106.762,239.800 200.000 M264.800 183.626 C 264.800 183.858,264.968 183.944,265.172 183.817 C 265.377 183.691,265.660 183.773,265.800 184.000 C 265.940 184.227,266.207 184.319,266.393 184.204 C 266.578 184.090,267.116 184.492,267.587 185.098 C 268.396 186.138,268.417 186.144,267.964 185.200 C 267.275 183.767,264.800 182.536,264.800 183.626 M262.800 185.400 C 262.800 185.730,262.665 186.001,262.500 186.003 C 262.335 186.005,261.980 186.500,261.711 187.103 L 261.221 188.200 262.209 187.000 C 263.106 185.910,263.505 184.800,263.000 184.800 C 262.890 184.800,262.800 185.070,262.800 185.400 M75.829 185.829 C 75.049 186.609,75.030 186.840,75.769 186.557 C 76.082 186.436,76.436 186.082,76.557 185.769 C 76.840 185.030,76.609 185.049,75.829 185.829 M259.863 192.883 C 259.538 194.125,259.785 194.189,260.326 193.002 C 260.577 192.451,260.628 192.000,260.438 192.000 C 260.248 192.000,259.989 192.397,259.863 192.883 M64.638 195.800 C 63.999 196.350,63.639 196.800,63.838 196.800 C 64.037 196.799,64.723 196.349,65.362 195.800 C 66.001 195.250,66.361 194.800,66.162 194.800 C 65.963 194.801,65.277 195.251,64.638 195.800 M252.509 200.000 C 252.509 200.990,252.587 201.395,252.682 200.900 C 252.778 200.405,252.778 199.595,252.682 199.100 C 252.587 198.605,252.509 199.010,252.509 200.000 M64.638 204.200 C 65.277 204.749,65.963 205.199,66.162 205.200 C 66.361 205.200,66.001 204.750,65.362 204.200 C 64.723 203.651,64.037 203.201,63.838 203.200 C 63.639 203.200,63.999 203.650,64.638 204.200 M68.400 207.500 C 68.400 207.669,68.760 208.032,69.200 208.307 C 69.640 208.582,70.000 208.669,70.000 208.500 C 70.000 208.331,69.640 207.968,69.200 207.693 C 68.760 207.418,68.400 207.331,68.400 207.500 M261.733 212.971 C 261.985 213.505,262.255 213.878,262.332 213.801 C 262.581 213.553,261.958 212.000,261.611 212.000 C 261.426 212.000,261.481 212.437,261.733 212.971 M75.451 213.789 C 75.567 214.091,75.909 214.433,76.211 214.549 C 76.557 214.682,76.682 214.557,76.549 214.211 C 76.433 213.909,76.091 213.567,75.789 213.451 C 75.443 213.318,75.318 213.443,75.451 213.789 M267.378 215.024 C 266.950 215.587,266.195 216.075,265.700 216.109 C 265.205 216.143,264.800 216.311,264.800 216.483 C 264.800 217.421,267.287 216.174,267.956 214.900 C 268.582 213.708,268.339 213.760,267.378 215.024 M81.800 219.600 C 81.936 219.820,82.307 220.000,82.624 220.000 C 82.941 220.000,83.200 220.161,83.200 220.357 C 83.200 220.554,83.515 220.824,83.900 220.959 C 84.317 221.105,84.147 220.799,83.478 220.202 C 82.362 219.206,81.327 218.835,81.800 219.600 M271.674 220.314 C 270.422 221.620,270.848 221.915,272.132 220.632 C 272.691 220.073,273.025 219.555,272.874 219.482 C 272.723 219.408,272.183 219.783,271.674 220.314 M88.473 225.300 C 89.815 226.565,90.581 226.955,89.630 225.888 C 89.097 225.290,88.499 224.800,88.302 224.800 C 88.104 224.800,88.181 225.025,88.473 225.300 " stroke="none" fill="#40acc4" fill-rule="evenodd"></path></g></svg>