<svg id="svg" version="1.1" xmlns="http://www.w3.org/2000/svg" xmlns:xlink="http://www.w3.org/1999/xlink" width="400" height="400" viewBox="0, 0, 400,400"><g id="svgg"><path id="path0" d="M174.824 1.197 C 10.906 23.547,-58.471 221.379,56.239 339.352 C 171.546 457.940,371.980 393.878,398.133 230.078 C 402.957 199.864,397.119 143.904,388.296 135.784 C 378.722 126.973,368.484 136.714,372.621 150.697 C 406.166 264.050,319.151 379.268,200.000 379.268 C 72.811 379.268,-13.990 251.197,33.307 133.321 C 66.683 50.141,157.646 3.647,243.359 25.956 C 258.929 30.009,263.396 29.438,266.063 23.055 C 269.270 15.379,266.093 10.721,255.469 7.524 C 232.834 0.713,198.266 -1.999,174.824 1.197 M325.391 21.018 C 324.102 21.832,308.984 36.598,291.797 53.830 L 260.547 85.161 260.325 105.276 L 260.102 125.391 225.755 159.768 C 201.123 184.422,191.206 194.848,190.696 196.628 C 189.123 202.113,192.469 208.135,197.729 209.285 C 203.893 210.632,203.435 211.009,240.156 174.320 L 274.609 139.898 294.724 139.675 L 314.839 139.453 346.533 107.813 C 383.250 71.157,382.729 71.846,379.035 64.832 C 376.434 59.891,374.307 59.378,356.445 59.376 L 340.625 59.375 340.624 43.555 C 340.623 30.058,340.422 27.333,339.257 25.000 C 336.783 20.048,330.006 18.102,325.391 21.018 M321.319 75.247 C 323.912 79.206,326.045 79.958,335.724 80.328 L 344.707 80.672 325.289 100.102 L 305.871 119.531 293.170 119.531 L 280.469 119.531 280.469 106.842 L 280.469 94.152 299.805 74.799 L 319.141 55.446 319.550 64.310 C 319.854 70.889,320.310 73.707,321.319 75.247 M183.203 60.537 C 83.874 73.245,29.240 184.210,80.011 270.129 C 138.514 369.133,284.163 359.465,329.588 253.561 C 338.416 232.979,343.736 194.807,339.063 185.576 C 335.789 179.111,327.007 177.757,322.221 182.979 L 319.736 185.691 319.314 201.244 C 316.439 307.080,191.398 357.689,116.740 283.234 C 42.250 208.948,92.957 83.631,198.693 80.697 C 216.057 80.215,217.590 79.711,219.523 73.853 C 223.411 62.073,209.906 57.121,183.203 60.537 M185.156 120.697 C 119.756 133.814,97.949 217.672,148.828 260.398 C 199.183 302.683,277.203 269.554,280.249 204.593 L 280.675 195.515 278.006 192.602 C 271.347 185.336,260.218 189.942,260.132 200.000 C 259.685 252.015,195.881 277.883,158.999 241.001 C 122.228 204.230,148.228 139.882,199.873 139.841 C 209.942 139.833,214.728 128.712,207.510 122.097 C 204.296 119.152,195.581 118.606,185.156 120.697 " stroke="none" fill="#303030" fill-rule="evenodd"></path></g></svg>