<svg id="svg" xmlns="http://www.w3.org/2000/svg" xmlns:xlink="http://www.w3.org/1999/xlink" width="400" height="400" viewBox="0, 0, 400,400"><g id="svgg"><path id="path0" d="M321.875 1.224 C 311.225 3.530,308.246 5.668,288.805 24.953 L 270.970 42.646 314.190 85.775 L 357.410 128.905 374.330 111.998 C 397.527 88.819,400.493 83.490,399.832 66.186 C 399.215 50.047,396.526 45.511,374.710 23.810 C 352.207 1.425,341.696 -3.068,321.875 1.224 M135.679 177.993 L 24.875 288.798 12.460 338.345 C -1.020 392.141,-1.352 394.080,2.284 397.716 C 5.920 401.352,7.859 401.020,61.655 387.540 L 111.202 375.125 222.007 264.321 C 282.950 203.379,332.813 153.164,332.813 152.733 C 332.813 151.710,248.285 67.188,247.262 67.188 C 246.833 67.188,196.621 117.050,135.679 177.993 " stroke="none" fill="#000000" fill-rule="evenodd"></path></g></svg>