<svg id="svg" xmlns="http://www.w3.org/2000/svg" xmlns:xlink="http://www.w3.org/1999/xlink" width="400" height="400" viewBox="0, 0, 400,400"><g id="svgg"><path id="path0" d="M104.862 1.533 C 96.300 4.628,89.811 10.661,85.691 19.357 L 83.203 24.609 82.985 85.742 L 82.767 146.875 200.000 146.875 L 317.233 146.875 317.015 85.742 L 316.797 24.609 314.296 19.329 C 310.980 12.330,305.220 6.343,298.611 3.026 L 293.359 0.391 201.172 0.217 C 112.205 0.049,108.840 0.095,104.862 1.533 M137.829 38.560 C 142.095 41.355,142.188 42.225,142.188 79.687 C 142.188 124.045,142.994 121.875,126.512 121.875 L 117.031 121.875 114.375 119.219 L 111.719 116.562 111.719 79.826 L 111.719 43.089 113.737 40.690 C 117.238 36.529,132.650 35.166,137.829 38.560 M123.438 79.297 L 123.438 110.156 126.953 110.156 L 130.469 110.156 130.469 79.297 L 130.469 48.438 126.953 48.438 L 123.438 48.438 123.438 79.297 M82.994 259.570 L 83.203 360.547 85.691 365.799 C 90.195 375.306,100.018 383.185,109.326 384.757 L 112.500 385.294 112.500 389.951 C 112.500 399.917,112.688 400.000,135.256 400.000 L 153.196 400.000 155.114 398.082 C 156.787 396.409,157.031 395.463,157.031 390.661 L 157.031 385.156 200.000 385.156 L 242.969 385.156 242.969 390.661 C 242.969 395.463,243.213 396.409,244.886 398.082 L 246.804 400.000 264.744 400.000 C 287.312 400.000,287.500 399.917,287.500 389.951 L 287.500 385.294 290.674 384.757 C 299.069 383.339,309.337 375.691,313.328 367.884 C 317.283 360.147,317.168 363.442,317.178 257.617 L 317.188 158.594 199.986 158.594 L 82.784 158.594 82.994 259.570 M136.695 184.593 C 137.757 185.130,139.427 186.759,140.406 188.213 L 142.188 190.856 142.188 235.349 C 142.188 291.117,143.301 287.500,126.133 287.500 L 117.031 287.500 114.375 284.844 L 111.719 282.187 111.719 236.367 C 111.719 186.320,111.633 187.306,116.221 184.817 C 118.968 183.326,133.869 183.163,136.695 184.593 M123.438 235.547 L 123.438 275.781 126.953 275.781 L 130.469 275.781 130.469 235.547 L 130.469 195.313 126.953 195.313 L 123.438 195.313 123.438 235.547 " stroke="none" fill="#000000" fill-rule="evenodd"></path></g></svg>