<svg id="svg" xmlns="http://www.w3.org/2000/svg" xmlns:xlink="http://www.w3.org/1999/xlink" width="400" height="400" viewBox="0, 0, 400,400"><g id="svgg"><path id="path0" d="M154.226 1.159 C 143.394 3.516,131.182 10.314,123.470 18.278 L 119.987 21.875 94.882 21.875 C 60.151 21.875,52.777 24.829,44.308 42.133 L 41.797 47.266 41.797 210.938 L 41.797 374.609 44.308 379.742 C 48.865 389.053,55.829 395.252,65.340 398.464 C 69.870 399.994,71.970 400.015,201.572 399.814 L 333.203 399.609 338.672 396.937 C 345.827 393.441,352.035 387.234,355.531 380.078 L 358.203 374.609 358.203 210.938 L 358.203 47.266 355.692 42.133 C 347.223 24.829,339.849 21.875,305.118 21.875 L 280.013 21.875 276.530 18.278 C 268.677 10.168,256.560 3.488,245.420 1.126 C 238.152 -0.414,161.331 -0.386,154.226 1.159 M243.138 25.770 C 254.338 29.229,268.750 43.291,268.750 50.759 C 268.750 51.303,246.583 51.563,200.000 51.563 C 153.417 51.563,131.250 51.303,131.250 50.759 C 131.250 43.433,144.965 29.838,156.232 25.997 C 163.756 23.431,234.964 23.245,243.138 25.770 M106.727 47.461 C 103.046 59.756,104.392 69.251,110.457 73.780 C 113.862 76.322,286.138 76.322,289.543 73.780 C 295.608 69.251,296.954 59.756,293.273 47.461 C 292.892 46.188,294.034 46.094,309.788 46.094 C 328.713 46.094,329.815 46.353,333.062 51.563 L 334.766 54.297 334.766 210.938 L 334.766 367.578 333.062 370.313 C 329.339 376.287,341.644 375.781,200.000 375.781 C 58.356 375.781,70.661 376.287,66.938 370.313 L 65.234 367.578 65.234 210.929 L 65.234 54.281 66.879 51.683 C 70.286 46.303,71.110 46.105,90.092 46.099 C 105.961 46.094,107.108 46.188,106.727 47.461 M234.563 113.277 C 225.223 118.972,227.332 132.219,238.107 135.539 L 240.667 136.328 227.364 149.602 L 214.060 162.876 195.507 144.411 C 173.687 122.696,171.983 121.631,165.000 125.339 C 162.460 126.688,118.500 170.760,117.270 173.191 C 113.979 179.694,118.429 188.980,125.470 190.301 C 131.968 191.520,132.678 191.023,152.149 171.641 L 170.313 153.559 189.258 172.423 C 215.778 198.829,212.322 198.856,239.258 172.031 C 257.195 154.169,258.594 152.950,258.594 155.179 C 258.594 163.412,270.094 168.444,277.256 163.344 C 281.480 160.336,281.827 158.835,282.200 141.956 C 282.870 111.604,282.971 111.717,255.312 111.722 C 238.527 111.724,236.911 111.845,234.563 113.277 M144.922 230.903 C 143.633 231.566,138.631 236.032,133.808 240.827 L 125.037 249.547 122.870 247.531 C 113.207 238.541,100.781 242.647,100.781 254.830 C 100.781 259.806,101.423 260.898,108.900 268.641 C 118.906 279.002,125.310 281.575,131.271 277.627 C 135.084 275.102,159.516 250.330,160.992 247.492 C 166.498 236.908,155.440 225.493,144.922 230.903 M186.707 243.634 C 178.542 247.973,178.212 260.023,186.126 264.848 C 190.104 267.274,288.802 267.274,292.781 264.848 C 300.689 260.026,300.335 247.657,292.172 243.556 C 287.862 241.390,190.793 241.462,186.707 243.634 M144.531 298.463 C 143.027 299.384,138.050 303.848,133.470 308.383 L 125.143 316.628 121.432 313.587 C 112.768 306.488,100.781 311.076,100.781 321.493 C 100.781 332.348,118.942 348.544,128.320 346.053 C 132.082 345.054,159.033 319.179,161.310 314.381 C 166.388 303.681,154.470 292.375,144.531 298.463 M186.930 310.909 C 178.138 314.900,178.105 327.933,186.875 332.496 C 190.010 334.127,288.896 334.127,292.031 332.496 C 300.801 327.933,300.768 314.900,291.976 310.909 C 286.851 308.583,192.055 308.583,186.930 310.909 " stroke="none" fill="#000000" fill-rule="evenodd"></path></g></svg>