<svg id="svg" version="1.1" xmlns="http://www.w3.org/2000/svg" xmlns:xlink="http://www.w3.org/1999/xlink" width="400" height="400" viewBox="0, 0, 400,400"><g id="svgg"><path id="path0" d="M174.609 1.194 C 8.750 22.804,-59.514 227.069,60.256 343.370 C 173.155 452.998,362.812 395.808,395.987 242.132 C 424.984 107.814,310.724 -16.541,174.609 1.194 M255.784 112.481 C 263.097 114.351,270.000 117.919,274.994 122.409 L 278.715 125.754 284.665 124.196 C 291.398 122.432,296.655 120.461,302.437 117.531 C 307.280 115.077,307.349 115.131,305.159 119.674 C 302.427 125.343,297.194 131.785,292.122 135.724 C 289.577 137.700,287.649 139.472,287.838 139.661 C 288.636 140.459,305.473 136.350,311.288 133.939 C 314.874 132.452,301.599 147.421,294.596 152.762 L 290.895 155.584 290.767 164.781 C 289.442 260.232,188.621 320.758,102.344 277.898 L 92.578 273.047 104.688 272.534 C 123.275 271.748,137.992 267.185,152.222 257.797 C 159.763 252.822,159.809 252.702,154.394 252.065 C 139.489 250.313,125.927 240.997,119.163 227.861 L 116.282 222.266 125.564 221.821 C 136.854 221.281,138.517 220.572,132.705 218.774 C 120.928 215.130,110.493 206.486,105.265 196.043 C 100.553 186.630,98.249 174.892,101.367 176.178 C 106.852 178.439,111.663 179.787,115.788 180.218 L 120.596 180.721 114.374 174.540 C 99.899 160.163,95.802 136.078,105.317 121.299 C 105.747 120.631,108.826 123.166,115.285 129.502 C 137.425 151.222,165.514 164.436,194.814 166.912 L 200.646 167.405 200.240 159.679 C 198.620 128.850,226.652 105.030,255.784 112.481 " stroke="none" fill="#ffffff" fill-rule="evenodd"></path></g></svg>