<svg id="svg" xmlns="http://www.w3.org/2000/svg" xmlns:xlink="http://www.w3.org/1999/xlink" width="400" height="400" viewBox="0, 0, 400,400"><g id="svgg"><path id="path0" d="M301.712 1.536 C 299.036 3.215,296.141 8.389,296.111 11.549 C 296.069 15.938,298.820 19.466,314.671 35.353 L 330.847 51.565 307.811 74.611 L 284.775 97.657 293.559 106.441 L 302.343 115.225 325.389 92.189 L 348.435 69.153 364.647 85.329 C 383.998 104.636,385.978 105.804,393.539 102.372 C 398.386 100.171,400.153 96.906,399.808 90.782 L 399.530 85.860 356.835 43.165 L 314.140 0.470 309.218 0.192 C 305.265 -0.030,303.788 0.234,301.712 1.536 M206.438 64.058 C 202.795 66.280,200.788 69.974,200.784 74.465 C 200.780 79.628,201.290 80.404,211.411 90.635 L 220.309 99.630 207.030 112.892 C 199.726 120.187,193.750 126.515,193.750 126.956 C 193.750 127.396,198.320 132.317,203.906 137.891 C 216.809 150.765,218.229 154.684,212.397 161.326 C 206.128 168.466,201.317 166.949,187.563 153.494 L 176.871 143.035 163.043 156.879 L 149.215 170.723 159.002 180.479 C 172.569 194.001,174.353 198.578,168.607 205.122 C 162.159 212.465,157.759 211.114,144.120 197.601 L 133.162 186.744 119.129 200.793 L 105.097 214.841 115.355 225.194 C 128.604 238.566,130.281 242.483,125.298 248.406 C 118.469 256.520,114.099 255.252,100.012 241.070 C 94.647 235.669,89.873 231.250,89.403 231.250 C 88.932 231.250,84.140 235.738,78.754 241.224 C 62.820 257.453,62.500 258.493,62.500 294.113 L 62.500 319.930 33.515 348.832 C -0.239 382.489,-0.002 382.210,0.005 388.203 C 0.014 395.775,4.225 399.986,11.797 399.995 C 17.790 400.002,17.511 400.239,51.168 366.485 L 80.070 337.500 105.887 337.500 C 133.794 337.500,136.603 337.184,144.740 333.134 C 148.029 331.497,163.636 316.307,224.621 255.391 L 300.413 179.683 308.996 188.334 C 318.792 198.208,320.336 199.219,325.627 199.219 C 334.340 199.219,340.362 189.680,336.378 182.188 C 335.022 179.636,219.858 64.587,217.434 63.362 C 214.722 61.992,209.261 62.337,206.438 64.058 " stroke="none" fill="#000000" fill-rule="evenodd"></path></g></svg>