<svg id="svg" version="1.1" xmlns="http://www.w3.org/2000/svg" xmlns:xlink="http://www.w3.org/1999/xlink" width="400" height="400" viewBox="0, 0, 400,400"><g id="svgg"><path id="path0" d="M197.178 13.266 C 192.208 15.274,192.188 15.411,192.188 46.650 L 192.188 75.120 194.471 77.404 C 198.341 81.274,205.010 80.446,207.414 75.797 C 209.202 72.339,209.164 20.555,207.370 17.087 C 205.560 13.587,200.800 11.802,197.178 13.266 M61.241 69.479 C 58.370 70.702,56.250 74.162,56.250 77.622 C 56.250 80.727,56.664 81.229,71.311 95.876 L 86.373 110.938 90.121 110.938 C 95.267 110.938,98.438 107.923,98.438 103.030 C 98.438 99.736,98.231 99.483,83.396 84.593 C 67.584 68.722,65.828 67.524,61.241 69.479 M333.594 69.335 C 330.553 69.851,302.663 98.107,301.974 101.370 C 300.756 107.135,306.057 112.238,312.135 111.153 C 315.381 110.573,343.375 82.631,343.952 79.395 C 345.119 72.842,340.330 68.190,333.594 69.335 M197.178 90.609 C 194.375 91.742,192.188 95.245,192.188 98.603 C 192.188 108.183,206.477 109.085,208.253 99.617 C 209.380 93.609,202.867 88.311,197.178 90.609 M100.067 126.620 C 92.090 128.206,94.176 125.493,57.777 181.618 L 42.591 205.033 42.309 210.620 C 41.851 219.683,39.790 217.077,107.421 292.969 C 191.981 387.857,187.866 383.347,191.635 385.298 C 196.178 387.651,203.822 387.651,208.365 385.298 C 212.123 383.352,207.717 388.184,292.573 292.969 C 360.210 217.075,358.149 219.681,357.691 210.617 L 357.409 205.026 334.468 169.505 C 309.510 130.861,309.069 130.261,303.906 127.828 L 300.391 126.172 201.953 126.053 C 147.813 125.988,101.964 126.243,100.067 126.620 M184.187 143.945 C 183.554 144.912,175.549 157.305,166.397 171.484 C 157.244 185.664,149.682 197.365,149.593 197.486 C 149.405 197.738,114.063 143.088,114.063 142.545 C 114.063 142.348,130.099 142.188,149.699 142.188 L 185.336 142.188 184.187 143.945 M285.322 144.336 C 284.495 145.518,276.689 157.559,267.975 171.094 C 259.261 184.629,251.740 196.115,251.261 196.618 C 250.456 197.464,245.325 189.841,216.134 144.434 L 214.690 142.188 250.758 142.188 L 286.825 142.188 285.322 144.336 M116.211 176.907 C 125.771 191.698,133.594 203.999,133.594 204.243 C 133.594 204.488,117.773 204.688,98.438 204.688 C 79.102 204.688,63.281 204.461,63.281 204.183 C 63.281 203.467,97.965 150.036,98.438 150.024 C 98.652 150.018,106.650 162.116,116.211 176.907 M319.830 177.539 L 337.410 204.688 301.843 204.688 C 282.281 204.688,266.393 204.396,266.536 204.041 C 267.378 201.950,301.268 150.114,301.711 150.239 C 302.007 150.322,310.161 162.607,319.830 177.539 M217.883 177.734 L 235.071 204.297 217.536 204.507 C 207.891 204.622,192.110 204.622,182.467 204.507 L 164.935 204.297 182.251 177.532 C 191.774 162.811,199.820 150.858,200.131 150.969 C 200.442 151.081,208.430 163.125,217.883 177.734 M4.163 205.826 C -0.695 207.940,-1.693 214.834,2.284 218.810 L 4.567 221.094 15.841 221.094 C 30.011 221.094,33.781 218.595,31.518 210.704 C 29.913 205.107,12.822 202.060,4.163 205.826 M371.820 206.459 C 367.260 209.533,366.808 215.462,370.849 219.207 C 372.805 221.021,373.322 221.094,384.159 221.094 L 395.433 221.094 397.716 218.810 C 401.765 214.761,400.683 207.890,395.665 205.793 C 390.964 203.829,375.065 204.273,371.820 206.459 M163.440 287.037 C 174.533 323.091,183.518 352.676,183.406 352.783 C 183.174 353.006,68.922 224.924,67.283 222.603 C 66.219 221.097,66.662 221.081,104.739 221.282 L 143.271 221.484 163.440 287.037 M239.096 221.680 C 239.157 222.760,200.396 348.416,200.000 348.420 C 199.606 348.423,160.846 222.768,160.906 221.680 C 160.923 221.357,178.516 221.094,200.000 221.094 C 221.484 221.094,239.078 221.357,239.096 221.680 M332.712 222.610 C 330.999 225.033,216.820 352.986,216.575 352.758 C 216.396 352.591,255.345 225.470,256.617 222.070 C 256.902 221.307,265.378 221.094,295.383 221.094 C 333.238 221.094,333.769 221.115,332.712 222.610 " stroke="none" fill="#303030" fill-rule="evenodd"></path></g></svg>