<svg version="1.1" id="Layer_1" xmlns="http://www.w3.org/2000/svg" xmlns:xlink="http://www.w3.org/1999/xlink" x="0px" y="0px"
	 width="100%" viewBox="0 0 885 282" enable-background="new 0 0 885 282" xml:space="preserve">
<path fill="#00000000" opacity="1.000000" stroke="none" 
	d="
M587.000000,283.000000 
	C391.333374,283.000000 196.166763,283.000000 1.000105,283.000000 
	C1.000070,189.000076 1.000070,95.000137 1.000035,1.000155 
	C295.999847,1.000103 590.999695,1.000103 885.999634,1.000052 
	C885.999756,94.999840 885.999756,188.999680 885.999878,282.999756 
	C786.500000,283.000000 687.000000,283.000000 587.000000,283.000000 
M698.949219,175.994812 
	C698.949219,175.994812 698.886719,176.121185 699.152771,176.689789 
	C699.749207,176.847183 700.345642,177.004578 701.261230,177.770569 
	C706.638428,181.896698 712.551392,184.624054 719.475342,185.044479 
	C721.323181,180.797775 720.319519,178.716476 715.803101,177.775116 
	C713.194885,177.231445 710.873596,175.310928 708.423096,174.010101 
	C708.622253,173.495377 708.821350,172.980652 709.020447,172.465912 
	C712.997192,171.266205 716.973938,170.066498 721.734009,169.303864 
	C721.823853,180.724762 721.921326,192.145630 721.996826,203.566620 
	C722.011230,205.747925 721.698608,208.099747 725.695984,208.505295 
	C721.394165,209.754257 721.144897,212.797958 721.975342,216.511307 
	C723.108398,221.578156 721.039795,224.647217 715.884705,225.588043 
	C707.582581,227.103165 699.283875,228.636902 690.183655,230.371460 
	C691.041016,230.914352 691.896484,231.927963 692.755920,231.931351 
	C714.795654,232.018311 736.835815,232.003906 758.875854,231.985565 
	C759.828796,231.984772 760.781616,231.778534 761.734497,231.667999 
	C761.409607,231.152557 761.084656,230.637100 759.914612,229.979263 
	C751.177856,228.324036 742.448730,226.626450 733.700012,225.037018 
	C730.719849,224.495575 729.848572,222.912354 729.894714,219.943802 
	C729.939270,217.077896 729.146973,214.198944 728.670044,210.971985 
	C728.721375,210.947388 729.858826,210.402115 731.663696,209.836609 
	C732.825806,208.909348 733.987976,207.982101 735.722595,206.997894 
	C736.162964,206.714630 736.603394,206.431366 737.689880,206.061066 
	C738.178528,205.726776 738.667236,205.392487 739.596130,204.994308 
	C739.596130,204.994308 740.016479,204.848511 740.547485,204.894867 
	C740.747803,204.611801 740.948181,204.328735 741.588806,203.920944 
	C741.866699,203.745438 742.025085,203.494507 742.710144,203.081070 
	C743.198242,202.745346 743.686401,202.409622 744.605286,201.920563 
	C744.882202,201.739685 745.031006,201.484207 745.556335,200.941071 
	C745.746338,200.639069 745.936340,200.337082 746.795410,199.705521 
	C752.037354,189.837875 749.126831,186.306931 731.143127,181.036591 
	C731.143127,182.755447 731.143127,184.375717 731.163574,186.632278 
	C731.760986,186.807190 732.358398,186.982101 733.357422,187.791321 
	C735.863403,188.542053 738.369385,189.292786 741.105713,190.608002 
	C741.720825,191.118454 742.335938,191.628922 742.733582,192.762848 
	C742.137329,194.125046 741.541077,195.487244 740.318542,197.102310 
	C739.826660,198.052856 739.334778,199.003403 738.414856,200.100220 
	C738.143433,200.278137 737.990112,200.528397 737.318481,200.944565 
	C736.833740,201.280457 736.348938,201.616333 735.281555,202.218216 
	C733.636414,203.493790 731.991272,204.769348 730.071838,205.119186 
	C730.048340,194.853027 730.065979,184.586411 729.952942,174.321243 
	C729.937561,172.924210 729.268860,171.534363 728.286804,170.003174 
	C727.557373,169.366455 726.827942,168.729752 726.001404,168.002762 
	C726.001404,168.002762 726.093994,168.097580 726.912598,168.014404 
	C732.947998,166.289795 738.983398,164.565170 745.546570,162.891357 
	C745.744751,162.609406 745.942871,162.327469 746.577698,161.999237 
	C746.577698,161.999237 746.998352,161.873352 747.607544,161.890518 
	C748.117798,161.278015 748.628052,160.665512 749.657471,159.843781 
	C750.121887,159.276764 750.586304,158.709763 751.539551,157.942261 
	C751.640686,157.636124 751.741821,157.330002 751.957520,156.504883 
	C751.931885,156.329605 751.906250,156.154312 752.025635,155.162384 
	C751.711182,153.385178 751.396729,151.607986 750.779785,149.221756 
	C745.614441,143.870407 739.402466,142.031265 732.213440,143.365921 
	C731.701782,147.605804 731.275452,151.525757 736.932495,152.456757 
	C736.932495,152.456757 736.927429,152.864014 736.299011,153.185776 
	C734.193909,154.155212 732.088867,155.124649 729.334351,155.949280 
	C728.897095,156.002579 728.459839,156.055878 727.291443,156.242691 
	C725.188843,156.862534 723.086243,157.482376 720.334351,157.960831 
	C719.897461,158.013260 719.460510,158.065689 718.241882,158.036865 
	C712.812378,159.976074 707.382812,161.915298 701.301270,163.956512 
	C700.803406,164.308884 700.305603,164.661255 699.189880,165.309998 
	C695.491760,168.180618 694.611450,171.357834 698.063171,175.540817 
	C698.345093,175.736847 698.626953,175.932877 698.949219,175.994812 
M727.926636,154.959915 
	C728.623291,154.358566 729.891174,153.790863 729.928894,153.150711 
	C730.348145,146.031067 730.640625,138.901428 730.773743,131.770844 
	C730.789734,130.916626 729.660583,130.041046 728.232178,129.027939 
	C726.223511,129.475281 724.214844,129.922638 722.003662,130.415085 
	C722.003662,137.799011 721.992493,145.082474 722.007996,152.365845 
	C722.016907,156.564880 724.057800,156.696899 727.926636,154.959915 
M506.160461,98.397301 
	C506.109619,120.307411 506.050262,142.217529 506.048279,164.127640 
	C506.048218,164.790573 506.646210,165.453568 507.452301,166.831055 
	C514.442871,166.887024 521.437988,166.811920 528.421997,167.054535 
	C531.892517,167.175095 533.036804,165.968430 533.076233,162.464966 
	C533.200989,151.370804 533.624695,140.278885 534.053284,129.190735 
	C534.105896,127.829819 534.641663,126.340858 535.376343,125.178528 
	C538.494751,120.244820 543.499573,119.353760 548.834412,118.896049 
	C550.615479,118.743233 553.617188,117.602898 553.792114,116.540428 
	C554.616028,111.536880 554.929810,106.396004 554.791870,101.321365 
	C554.752747,99.881866 552.776855,97.556656 551.346069,97.252724 
	C544.460510,95.790024 540.194580,95.242516 534.835999,102.886719 
	C532.550110,101.254829 530.365112,98.421448 527.956726,98.216850 
	C521.019897,97.627548 513.992859,98.099411 506.160461,98.397301 
M304.760956,165.681793 
	C300.252716,157.361176 296.020264,148.875198 291.158722,140.766403 
	C286.292938,132.650497 286.384460,132.320465 291.003021,124.335968 
	C295.830719,115.989868 299.842712,107.171921 305.004059,96.997429 
	C297.858887,96.997429 291.992645,97.099770 286.131622,96.968513 
	C280.327393,96.838531 276.066528,98.720009 273.735107,104.497841 
	C272.462067,107.652786 270.311951,110.453835 267.831421,114.639435 
	C265.054749,108.442230 262.964752,103.777618 261.011414,98.204254 
	C258.459167,97.804642 255.901398,97.039528 253.355804,97.078072 
	C247.200623,97.171242 241.051102,97.639412 234.248016,98.334846 
	C234.637207,100.192802 234.638535,102.252327 235.481506,103.874466 
	C239.523758,111.652809 243.471634,119.514633 248.118149,126.930023 
	C250.453094,130.656342 250.118973,133.490829 248.049667,136.794052 
	C246.171616,139.791931 244.271606,142.787766 242.605774,145.904465 
	C239.045639,152.565369 235.630737,159.303894 232.431564,166.834976 
	C238.841644,166.888184 245.252930,167.032928 251.661194,166.948456 
	C254.140701,166.915802 256.613373,166.363800 259.741211,165.772980 
	C262.662476,159.946198 265.583710,154.119415 268.694092,147.915421 
	C269.747711,149.823395 270.655884,151.503433 271.596771,153.164963 
	C274.033356,157.467712 276.484344,161.762283 279.345978,166.833084 
	C284.805939,166.886917 290.268219,167.055542 295.724945,166.947144 
	C298.539276,166.891235 301.343842,166.342743 304.760956,165.681793 
M624.972717,136.117905 
	C625.472656,127.981590 624.353394,120.327347 620.128479,113.036163 
	C609.926758,95.430336 582.443848,88.973312 565.511963,105.139214 
	C556.638184,113.611588 554.455750,124.556442 554.761292,136.717163 
	C555.094360,149.971359 565.965820,162.019348 577.182190,166.145584 
	C584.969727,169.010437 592.928833,169.508957 600.757996,167.814651 
	C611.373230,165.517380 619.122253,159.234436 623.186646,148.749283 
	C624.439331,145.517654 624.166809,143.991531 620.458557,143.998123 
	C616.444458,144.005264 612.394043,143.666245 608.426514,144.096283 
	C604.545227,144.516953 600.491882,145.134903 596.965332,146.689758 
	C588.454956,150.441986 582.542236,147.480316 581.959412,138.028076 
	C594.773804,138.010742 607.588318,138.023483 620.402222,137.935226 
	C621.880920,137.925049 623.355713,137.352890 624.972717,136.117905 
M653.238037,59.701004 
	C657.922974,70.944313 666.642700,77.684265 677.688049,82.057083 
	C689.912048,86.896492 702.028503,92.008614 714.173096,97.047096 
	C718.716797,98.932152 720.952515,102.360634 721.071106,107.344955 
	C721.109253,108.943443 721.961914,110.522545 722.390259,111.939636 
	C727.485840,110.665085 731.301270,109.263519 731.530273,103.374985 
	C731.608704,101.357063 734.085571,98.562149 736.146484,97.637444 
	C746.892578,92.815727 757.804138,88.346535 768.764160,84.023384 
	C776.962830,80.789421 785.098267,77.576210 791.449219,71.134102 
	C795.015259,67.516846 796.797302,63.236050 797.024414,58.102383 
	C795.331299,58.016403 794.180664,57.957973 792.613037,57.136482 
	C785.210083,57.090988 777.806335,56.967773 770.404602,57.043530 
	C767.922729,57.068932 765.446106,57.601433 762.454651,57.993881 
	C762.290405,58.049805 762.126099,58.105728 761.036560,58.036430 
	C726.540100,58.018848 692.043640,57.988796 657.547241,58.026737 
	C656.082764,58.028347 654.619019,58.660576 653.238037,59.701004 
M395.085297,109.605888 
	C401.785980,109.735458 408.486755,109.954880 415.187256,109.945137 
	C417.487396,109.941788 419.786774,109.365463 422.752258,108.659798 
	C421.826233,98.065819 416.876862,89.396812 408.732239,83.026016 
	C394.640015,72.003006 378.669586,71.407356 362.378632,77.028145 
	C347.695465,82.094200 338.982300,92.834213 337.111511,108.198334 
	C336.128510,116.271523 335.990112,124.706215 337.174988,132.725815 
	C339.088959,145.680008 345.765167,156.104889 357.484100,162.834381 
	C367.091949,168.351593 377.658936,168.940231 388.123108,167.783310 
	C396.668304,166.838562 405.207031,164.136841 411.136597,157.250137 
	C417.009064,150.429749 421.230103,142.563507 422.787231,132.997147 
	C415.109131,132.997147 407.494812,133.183456 399.896454,132.915619 
	C396.296967,132.788742 394.275299,133.741623 392.703552,137.212967 
	C391.581238,139.691757 389.289337,142.310745 386.860443,143.406021 
	C378.693939,147.088562 367.450562,141.769791 365.197479,133.014694 
	C362.820618,123.778870 363.356995,114.386749 367.282135,105.598236 
	C370.489471,98.416946 379.746765,95.913345 386.930267,98.837433 
	C391.736145,100.793709 392.746826,105.084274 395.085297,109.605888 
M99.250099,166.786667 
	C110.216103,166.856049 121.182098,166.942673 132.148148,166.952545 
	C132.814606,166.953140 133.481628,166.344742 134.799896,165.639954 
	C139.745438,150.361420 144.618423,135.058899 149.658203,119.811516 
	C154.144913,106.237358 158.759094,92.704376 163.451660,79.200005 
	C164.458847,76.301491 163.658127,75.034256 160.755386,75.021004 
	C151.576996,74.979095 142.398285,75.005531 133.535858,75.005531 
	C127.562981,94.548767 121.739395,113.603554 115.915802,132.658340 
	C112.933090,125.459206 111.169380,118.429916 109.029968,111.516907 
	C105.400772,99.790062 101.614769,88.109131 97.641769,76.495415 
	C97.252205,75.356628 95.087479,74.096947 93.770004,74.121902 
	C85.192230,74.284477 76.620903,74.786644 67.358299,75.209129 
	C69.037804,80.562279 70.480904,85.349548 72.039764,90.098831 
	C79.732422,113.535568 87.415611,136.975677 95.238373,160.369034 
	C95.922798,162.415741 97.594597,164.132248 99.250099,166.786667 
M496.999542,160.498764 
	C497.017914,147.644760 497.479706,134.770538 496.894501,121.944069 
	C496.521362,113.764725 493.208435,106.592979 485.673920,101.870758 
	C473.058563,93.964142 460.215088,94.220314 447.028168,99.992706 
	C438.238403,103.840302 433.307678,110.444969 432.479462,120.266769 
	C433.259949,120.548622 433.849823,120.947021 434.439667,120.946960 
	C443.771210,120.945908 453.122284,121.914810 461.856964,116.818817 
	C466.765930,113.954842 469.164093,116.017006 468.555511,121.865761 
	C461.819427,123.216187 454.880310,124.170654 448.206085,126.060600 
	C440.594482,128.215988 432.738159,130.474869 429.921814,139.485245 
	C427.484406,147.283096 429.290771,159.908279 438.466858,164.831482 
	C449.302155,170.644913 464.213348,167.835953 470.517548,160.780670 
	C471.114105,166.565384 474.628723,167.558105 479.489197,167.077911 
	C483.447174,166.686844 487.498444,166.724960 491.464844,167.071014 
	C495.922668,167.459946 497.673218,165.773758 496.999542,160.498764 
M214.526871,101.907631 
	C206.911102,98.090179 199.005066,96.662071 190.347885,96.785522 
	C177.807877,96.964333 166.602463,103.912407 163.327240,116.116043 
	C162.366821,119.694656 163.426697,121.078636 167.065308,121.021538 
	C175.561264,120.888206 184.173706,122.157379 191.957733,116.846100 
	C193.374298,115.879524 196.547333,117.487122 198.909515,117.906387 
	C197.374573,119.267471 196.053970,121.304565 194.267120,121.871071 
	C187.039368,124.162567 179.622345,125.849846 172.360275,128.042038 
	C161.064316,131.451920 157.625626,141.828140 159.189194,150.750031 
	C160.940948,160.745804 169.255692,167.389099 179.541428,168.109985 
	C187.497803,168.667618 194.385773,166.418289 200.832535,160.943619 
	C200.665283,165.997574 203.208588,167.251205 207.340714,167.054443 
	C212.323578,166.817154 217.338638,166.783173 222.316559,167.067444 
	C226.167511,167.287354 227.119629,165.750137 227.067505,162.137711 
	C226.887375,149.654938 227.340317,137.155411 226.884094,124.686722 
	C226.550522,115.570274 224.733017,106.716858 214.526871,101.907631 
M771.009521,42.629169 
	C771.323181,43.715416 771.762817,44.782578 771.930725,45.890907 
	C773.358582,55.314713 773.342041,55.194195 782.681946,55.063133 
	C785.906006,55.017887 787.058838,53.975582 787.049683,50.713104 
	C787.003845,34.371353 781.460083,20.784327 767.661011,11.271646 
	C758.029419,4.631857 747.508606,2.841287 736.193787,5.924581 
	C720.242310,10.271400 712.399475,22.059748 708.080505,36.901062 
	C707.358154,39.383350 707.727478,42.183319 707.536194,45.937832 
	C713.568298,43.504478 718.238708,42.020355 722.523376,39.793758 
	C728.273010,36.805889 732.528320,32.332237 734.084412,25.682140 
	C734.382263,24.409164 735.447876,22.950975 736.575989,22.297220 
	C743.203003,18.456703 749.649536,19.786886 755.932068,23.382965 
	C763.305298,27.603268 768.383118,33.677021 771.009521,42.629169 
M702.451660,136.171402 
	C713.246033,132.105698 724.208557,128.431961 734.797607,123.887817 
	C753.434875,115.889870 770.117249,105.268105 779.923645,86.513542 
	C780.585754,85.247147 780.735718,83.712936 781.123962,82.303307 
	C780.777954,82.019859 780.431946,81.736412 780.085999,81.452965 
	C774.040405,84.483688 766.776245,86.274742 762.186523,90.786499 
	C750.248779,102.521576 735.753357,109.057365 720.636719,115.024818 
	C711.591980,118.595337 702.581055,122.448456 694.068604,127.112152 
	C686.396729,131.315353 687.133728,143.250809 695.258423,146.454498 
	C701.370178,148.864441 708.134705,149.700989 714.668091,150.919296 
	C717.250061,151.400772 720.002502,151.518661 720.097229,147.240845 
	C720.183777,143.328156 718.766418,141.471985 714.950134,140.969269 
	C711.088440,140.460571 707.250610,139.721405 703.444580,138.889847 
	C702.869080,138.764099 702.523071,137.588196 702.451660,136.171402 
M688.196167,51.672302 
	C694.609070,53.906353 700.553467,53.684929 706.440613,48.082157 
	C704.588867,48.082157 703.468445,47.743038 702.740662,48.134251 
	C694.859375,52.370800 689.190430,48.687580 683.640930,43.348812 
	C682.282776,42.042252 679.687500,42.021645 677.660950,41.409801 
	C677.496216,41.887253 677.331482,42.364704 677.166748,42.842155 
	C680.636292,45.617329 684.105835,48.392502 688.196167,51.672302 
z"/>
<path fill="#47ADC5" opacity="1.000000" stroke="none" 
	d="
M98.807770,166.002136 
	C97.594597,164.132248 95.922798,162.415741 95.238373,160.369034 
	C87.415611,136.975677 79.732422,113.535568 72.039764,90.098831 
	C70.480904,85.349548 69.037804,80.562279 67.358299,75.209129 
	C76.620903,74.786644 85.192230,74.284477 93.770004,74.121902 
	C95.087479,74.096947 97.252205,75.356628 97.641769,76.495415 
	C101.614769,88.109131 105.400772,99.790062 109.029968,111.516907 
	C111.169380,118.429916 112.933090,125.459206 115.915802,132.658340 
	C121.739395,113.603554 127.562981,94.548767 133.535858,75.005531 
	C142.398285,75.005531 151.576996,74.979095 160.755386,75.021004 
	C163.658127,75.034256 164.458847,76.301491 163.451660,79.200005 
	C158.759094,92.704376 154.144913,106.237358 149.658203,119.811516 
	C144.618423,135.058899 139.745438,150.361420 133.996613,165.797089 
	C121.731468,165.970200 110.269615,165.986176 98.807770,166.002136 
z"/>
<path fill="#47AEC5" opacity="1.000000" stroke="none" 
	d="
M395.080139,108.649170 
	C392.746826,105.084274 391.736145,100.793709 386.930267,98.837433 
	C379.746765,95.913345 370.489471,98.416946 367.282135,105.598236 
	C363.356995,114.386749 362.820618,123.778870 365.197479,133.014694 
	C367.450562,141.769791 378.693939,147.088562 386.860443,143.406021 
	C389.289337,142.310745 391.581238,139.691757 392.703552,137.212967 
	C394.275299,133.741623 396.296967,132.788742 399.896454,132.915619 
	C407.494812,133.183456 415.109131,132.997147 422.787231,132.997147 
	C421.230103,142.563507 417.009064,150.429749 411.136597,157.250137 
	C405.207031,164.136841 396.668304,166.838562 388.123108,167.783310 
	C377.658936,168.940231 367.091949,168.351593 357.484100,162.834381 
	C345.765167,156.104889 339.088959,145.680008 337.174988,132.725815 
	C335.990112,124.706215 336.128510,116.271523 337.111511,108.198334 
	C338.982300,92.834213 347.695465,82.094200 362.378632,77.028145 
	C378.669586,71.407356 394.640015,72.003006 408.732239,83.026016 
	C416.876862,89.396812 421.826233,98.065819 421.946564,108.825470 
	C412.453949,108.877144 403.767059,108.763161 395.080139,108.649170 
z"/>
<path fill="#47ADC5" opacity="1.000000" stroke="none" 
	d="
M793.030029,57.899540 
	C794.180664,57.957973 795.331299,58.016403 797.024414,58.102383 
	C796.797302,63.236050 795.015259,67.516846 791.449219,71.134102 
	C785.098267,77.576210 776.962830,80.789421 768.764160,84.023384 
	C757.804138,88.346535 746.892578,92.815727 736.146484,97.637444 
	C734.085571,98.562149 731.608704,101.357063 731.530273,103.374985 
	C731.301270,109.263519 727.485840,110.665085 722.390259,111.939636 
	C721.961914,110.522545 721.109253,108.943443 721.071106,107.344955 
	C720.952515,102.360634 718.716797,98.932152 714.173096,97.047096 
	C702.028503,92.008614 689.912048,86.896492 677.688049,82.057083 
	C666.642700,77.684265 657.922974,70.944313 653.654968,59.355148 
	C688.272461,59.000202 722.473022,59.003262 756.673523,58.947159 
	C758.436707,58.944267 760.199097,58.435104 761.961853,58.161652 
	C762.126099,58.105728 762.290405,58.049805 763.178162,58.003708 
	C773.611145,57.975533 783.320557,57.937534 793.030029,57.899540 
z"/>
<path fill="#47AEC5" opacity="1.000000" stroke="none" 
	d="
M496.999054,160.959473 
	C497.673218,165.773758 495.922668,167.459946 491.464844,167.071014 
	C487.498444,166.724960 483.447174,166.686844 479.489197,167.077911 
	C474.628723,167.558105 471.114105,166.565384 470.517548,160.780670 
	C464.213348,167.835953 449.302155,170.644913 438.466858,164.831482 
	C429.290771,159.908279 427.484406,147.283096 429.921814,139.485245 
	C432.738159,130.474869 440.594482,128.215988 448.206085,126.060600 
	C454.880310,124.170654 461.819427,123.216187 468.555511,121.865761 
	C469.164093,116.017006 466.765930,113.954842 461.856964,116.818817 
	C453.122284,121.914810 443.771210,120.945908 434.439667,120.946960 
	C433.849823,120.947021 433.259949,120.548622 432.479462,120.266769 
	C433.307678,110.444969 438.238403,103.840302 447.028168,99.992706 
	C460.215088,94.220314 473.058563,93.964142 485.673920,101.870758 
	C493.208435,106.592979 496.521362,113.764725 496.894501,121.944069 
	C497.479706,134.770538 497.017914,147.644760 496.999054,160.959473 
M469.328400,140.838104 
	C465.416748,136.555389 461.744293,139.299072 458.283875,141.438339 
	C455.620636,143.084793 453.445770,145.851074 455.600922,148.822693 
	C457.539032,151.495041 461.262268,152.281418 463.882568,149.875061 
	C466.355804,147.603714 467.888245,144.307938 469.328400,140.838104 
z"/>
<path fill="#47AEC5" opacity="1.000000" stroke="none" 
	d="
M214.901871,101.975571 
	C224.733017,106.716858 226.550522,115.570274 226.884094,124.686722 
	C227.340317,137.155411 226.887375,149.654938 227.067505,162.137711 
	C227.119629,165.750137 226.167511,167.287354 222.316559,167.067444 
	C217.338638,166.783173 212.323578,166.817154 207.340714,167.054443 
	C203.208588,167.251205 200.665283,165.997574 200.832535,160.943619 
	C194.385773,166.418289 187.497803,168.667618 179.541428,168.109985 
	C169.255692,167.389099 160.940948,160.745804 159.189194,150.750031 
	C157.625626,141.828140 161.064316,131.451920 172.360275,128.042038 
	C179.622345,125.849846 187.039368,124.162567 194.267120,121.871071 
	C196.053970,121.304565 197.374573,119.267471 198.909515,117.906387 
	C196.547333,117.487122 193.374298,115.879524 191.957733,116.846100 
	C184.173706,122.157379 175.561264,120.888206 167.065308,121.021538 
	C163.426697,121.078636 162.366821,119.694656 163.327240,116.116043 
	C166.602463,103.912407 177.807877,96.964333 190.347885,96.785522 
	C199.005066,96.662071 206.911102,98.090179 214.901871,101.975571 
M184.056808,146.888504 
	C185.989075,150.445267 194.438599,151.689606 196.841583,148.445068 
	C198.398422,146.342987 199.207535,143.572495 199.839233,140.976807 
	C200.006683,140.288666 198.108597,138.223770 197.450760,138.347137 
	C192.192642,139.333252 186.870209,140.472809 184.056808,146.888504 
z"/>
<path fill="#47ADC5" opacity="1.000000" stroke="none" 
	d="
M581.030701,138.122559 
	C582.542236,147.480316 588.454956,150.441986 596.965332,146.689758 
	C600.491882,145.134903 604.545227,144.516953 608.426514,144.096283 
	C612.394043,143.666245 616.444458,144.005264 620.458557,143.998123 
	C624.166809,143.991531 624.439331,145.517654 623.186646,148.749283 
	C619.122253,159.234436 611.373230,165.517380 600.757996,167.814651 
	C592.928833,169.508957 584.969727,169.010437 577.182190,166.145584 
	C565.965820,162.019348 555.094360,149.971359 554.761292,136.717163 
	C554.455750,124.556442 556.638184,113.611588 565.511963,105.139214 
	C582.443848,88.973312 609.926758,95.430336 620.128479,113.036163 
	C624.353394,120.327347 625.472656,127.981590 624.444702,136.574280 
	C611.312866,137.012085 598.708679,136.950333 586.105347,137.026108 
	C584.411621,137.036285 582.722168,137.740005 581.030701,138.122559 
M583.015381,118.488258 
	C582.269531,120.135368 581.523682,121.782478 580.876770,123.211098 
	C587.580566,123.211098 593.708008,123.211098 599.835510,123.211098 
	C600.098328,122.732262 600.361084,122.253426 600.623901,121.774590 
	C599.559753,120.466515 598.716492,118.847305 597.391418,117.906921 
	C592.867981,114.696793 588.198303,115.538979 583.015381,118.488258 
z"/>
<path fill="#48AEC5" opacity="1.000000" stroke="none" 
	d="
M260.874756,99.113007 
	C262.964752,103.777618 265.054749,108.442230 267.831421,114.639435 
	C270.311951,110.453835 272.462067,107.652786 273.735107,104.497841 
	C276.066528,98.720009 280.327393,96.838531 286.131622,96.968513 
	C291.992645,97.099770 297.858887,96.997429 305.004059,96.997429 
	C299.842712,107.171921 295.830719,115.989868 291.003021,124.335968 
	C286.384460,132.320465 286.292938,132.650497 291.158722,140.766403 
	C296.020264,148.875198 300.252716,157.361176 303.979309,165.811401 
	C295.108307,165.980713 287.018951,166.020416 278.929596,166.060120 
	C276.484344,161.762283 274.033356,157.467712 271.596771,153.164963 
	C270.655884,151.503433 269.747711,149.823395 268.694092,147.915421 
	C265.583710,154.119415 262.662476,159.946198 258.942322,165.880341 
	C249.481079,165.995346 240.818710,166.002975 232.156342,166.010620 
	C235.630737,159.303894 239.045639,152.565369 242.605774,145.904465 
	C244.271606,142.787766 246.171616,139.791931 248.049667,136.794052 
	C250.118973,133.490829 250.453094,130.656342 248.118149,126.930023 
	C243.471634,119.514633 239.523758,111.652809 235.481506,103.874466 
	C234.638535,102.252327 234.637207,100.192802 235.047455,98.177658 
	C239.978790,98.008171 244.117355,97.844070 248.240707,98.025780 
	C252.459824,98.211700 256.664032,98.736526 260.874756,99.113007 
z"/>
<path fill="#46ADC5" opacity="1.000000" stroke="none" 
	d="
M507.001282,98.154434 
	C513.992859,98.099411 521.019897,97.627548 527.956726,98.216850 
	C530.365112,98.421448 532.550110,101.254829 534.835999,102.886719 
	C540.194580,95.242516 544.460510,95.790024 551.346069,97.252724 
	C552.776855,97.556656 554.752747,99.881866 554.791870,101.321365 
	C554.929810,106.396004 554.616028,111.536880 553.792114,116.540428 
	C553.617188,117.602898 550.615479,118.743233 548.834412,118.896049 
	C543.499573,119.353760 538.494751,120.244820 535.376343,125.178528 
	C534.641663,126.340858 534.105896,127.829819 534.053284,129.190735 
	C533.624695,140.278885 533.200989,151.370804 533.076233,162.464966 
	C533.036804,165.968430 531.892517,167.175095 528.421997,167.054535 
	C521.437988,166.811920 514.442871,166.887024 507.242615,165.998871 
	C507.022400,142.829269 507.011841,120.491852 507.001282,98.154434 
z"/>
<path fill="#48AEC6" opacity="1.000000" stroke="none" 
	d="
M770.972534,42.221619 
	C768.383118,33.677021 763.305298,27.603268 755.932068,23.382965 
	C749.649536,19.786886 743.203003,18.456703 736.575989,22.297220 
	C735.447876,22.950975 734.382263,24.409164 734.084412,25.682140 
	C732.528320,32.332237 728.273010,36.805889 722.523376,39.793758 
	C718.238708,42.020355 713.568298,43.504478 707.536194,45.937832 
	C707.727478,42.183319 707.358154,39.383350 708.080505,36.901062 
	C712.399475,22.059748 720.242310,10.271400 736.193787,5.924581 
	C747.508606,2.841287 758.029419,4.631857 767.661011,11.271646 
	C781.460083,20.784327 787.003845,34.371353 787.049683,50.713104 
	C787.058838,53.975582 785.906006,55.017887 782.681946,55.063133 
	C773.342041,55.194195 773.358582,55.314713 771.930725,45.890907 
	C771.762817,44.782578 771.323181,43.715416 770.972534,42.221619 
z"/>
<path fill="#48AEC6" opacity="1.000000" stroke="none" 
	d="
M702.261292,136.534729 
	C702.523071,137.588196 702.869080,138.764099 703.444580,138.889847 
	C707.250610,139.721405 711.088440,140.460571 714.950134,140.969269 
	C718.766418,141.471985 720.183777,143.328156 720.097229,147.240845 
	C720.002502,151.518661 717.250061,151.400772 714.668091,150.919296 
	C708.134705,149.700989 701.370178,148.864441 695.258423,146.454498 
	C687.133728,143.250809 686.396729,131.315353 694.068604,127.112152 
	C702.581055,122.448456 711.591980,118.595337 720.636719,115.024818 
	C735.753357,109.057365 750.248779,102.521576 762.186523,90.786499 
	C766.776245,86.274742 774.040405,84.483688 780.085999,81.452965 
	C780.431946,81.736412 780.777954,82.019859 781.123962,82.303307 
	C780.735718,83.712936 780.585754,85.247147 779.923645,86.513542 
	C770.117249,105.268105 753.434875,115.889870 734.797607,123.887817 
	C724.208557,128.431961 713.246033,132.105698 702.261292,136.534729 
z"/>
<path fill="#46ADC5" opacity="1.000000" stroke="none" 
	d="
M751.050720,158.142761 
	C750.586304,158.709763 750.121887,159.276764 749.083679,159.979858 
	C748.006042,160.701752 747.502197,161.287552 746.998352,161.873352 
	C746.998352,161.873352 746.577698,161.999237 746.140015,162.105240 
	C745.418640,162.360321 745.190735,162.570084 745.018799,162.840546 
	C738.983398,164.565170 732.947998,166.289795 726.447021,167.942291 
	C725.981506,167.870178 725.684998,167.845978 725.684998,167.845978 
	C725.684998,167.845978 726.098511,168.093033 726.098511,168.093048 
	C726.827942,168.729752 727.557373,169.366455 728.611572,170.530304 
	C728.956421,181.201050 729.057861,191.345856 728.909668,201.487030 
	C728.887207,203.025131 727.705139,204.546280 726.634644,206.052139 
	C722.949768,206.305634 722.978394,204.112259 722.984070,201.830917 
	C723.008911,191.932648 723.057495,182.033279 722.903381,172.137344 
	C722.886292,171.037292 721.631470,169.956512 720.950684,168.866791 
	C716.973938,170.066498 712.997192,171.266205 709.020447,172.465912 
	C708.821350,172.980652 708.622253,173.495377 708.423096,174.010101 
	C710.873596,175.310928 713.194885,177.231445 715.803101,177.775116 
	C720.319519,178.716476 721.323181,180.797775 719.475342,185.044479 
	C712.551392,184.624054 706.638428,181.896698 700.932861,177.207886 
	C700.031860,176.470520 699.459290,176.295853 698.886719,176.121185 
	C698.886719,176.121185 698.949219,175.994812 698.855347,175.841034 
	C698.617737,175.401917 698.408630,175.177536 698.134033,175.014099 
	C694.611450,171.357834 695.491760,168.180618 699.820312,165.123505 
	C700.951538,164.576172 701.452454,164.215332 701.953308,163.854523 
	C707.382812,161.915298 712.812378,159.976074 718.792847,158.261200 
	C719.890381,158.357758 720.437012,158.229996 720.983643,158.102234 
	C723.086243,157.482376 725.188843,156.862534 727.816406,156.361603 
	C728.888794,156.351700 729.436279,156.222885 729.983765,156.094086 
	C732.088867,155.124649 734.193909,154.155212 736.774536,153.195221 
	C737.703613,152.781815 738.157104,152.358963 738.610596,151.936096 
	C738.031494,151.975327 737.452454,152.014557 736.873352,152.053772 
	C731.275452,151.525757 731.701782,147.605804 732.213440,143.365921 
	C739.402466,142.031265 745.614441,143.870407 750.907776,149.933441 
	C751.317383,152.423111 751.598999,154.201065 751.880615,155.979019 
	C751.906250,156.154312 751.931885,156.329605 751.719910,156.913284 
	C751.268311,157.558533 751.124451,157.832230 751.050720,158.142761 
z"/>
<path fill="#49AEC6" opacity="1.000000" stroke="none" 
	d="
M730.346130,206.044922 
	C731.991272,204.769348 733.636414,203.493790 735.887451,202.062500 
	C736.980591,201.554886 737.467834,201.202972 737.955017,200.851044 
	C737.990112,200.528397 738.143433,200.278137 738.941284,199.896454 
	C739.960083,198.744934 740.452454,197.797180 740.944824,196.849426 
	C741.541077,195.487244 742.137329,194.125046 742.798462,192.118759 
	C742.200684,190.997620 741.538025,190.520569 740.875366,190.043518 
	C738.369385,189.292786 735.863403,188.542053 733.014404,187.226807 
	C732.161926,186.440170 731.652527,186.218079 731.143127,185.995972 
	C731.143127,184.375717 731.143127,182.755447 731.143127,181.036591 
	C749.126831,186.306931 752.037354,189.837875 746.228760,200.000763 
	C745.458618,200.582047 745.255188,200.868073 745.051697,201.154114 
	C745.031006,201.484207 744.882202,201.739685 744.070557,202.009949 
	C743.045227,202.455612 742.554626,202.811874 742.063965,203.168152 
	C742.025085,203.494507 741.866699,203.745438 741.147461,204.067368 
	C740.418335,204.362411 740.188477,204.573975 740.016479,204.848511 
	C740.016479,204.848511 739.596130,204.994308 739.059082,205.044647 
	C738.029297,205.446030 737.536499,205.797058 737.043762,206.148071 
	C736.603394,206.431366 736.162964,206.714630 735.089355,207.044342 
	C733.302856,208.012817 732.149597,208.934830 730.996277,209.856842 
	C729.858826,210.402115 728.721375,210.947388 728.670044,210.971985 
	C729.146973,214.198944 729.939270,217.077896 729.894714,219.943802 
	C729.848572,222.912354 730.719849,224.495575 733.700012,225.037018 
	C742.448730,226.626450 751.177856,228.324036 760.030823,230.289780 
	C759.331909,230.733765 758.516907,230.982956 757.701660,230.983856 
	C736.543701,231.007324 715.385742,231.017426 694.227844,230.971176 
	C693.145874,230.968811 692.065125,230.444214 690.983765,230.162781 
	C699.283875,228.636902 707.582581,227.103165 715.884705,225.588043 
	C721.039795,224.647217 723.108398,221.578156 721.975342,216.511307 
	C721.144897,212.797958 721.394165,209.754257 725.362976,208.236145 
	C725.029968,207.966980 724.940002,207.944397 725.146484,208.284943 
	C726.219177,208.131943 727.085327,207.638382 728.296448,207.093567 
	C729.209595,206.709824 729.777893,206.377365 730.346130,206.044922 
z"/>
<path fill="#47AEC5" opacity="1.000000" stroke="none" 
	d="
M727.054077,154.835754 
	C724.057800,156.696899 722.016907,156.564880 722.007996,152.365845 
	C721.992493,145.082474 722.003662,137.799011 722.003662,130.415085 
	C724.214844,129.922638 726.223511,129.475281 728.640320,129.559036 
	C729.022339,136.576324 729.129456,143.067581 728.883301,149.545425 
	C728.815491,151.329453 727.692810,153.073410 727.054077,154.835754 
z"/>
<path fill="#69BDD0" opacity="1.000000" stroke="none" 
	d="
M761.499207,58.099041 
	C760.199097,58.435104 758.436707,58.944267 756.673523,58.947159 
	C722.473022,59.003262 688.272461,59.000202 653.613403,59.004158 
	C654.619019,58.660576 656.082764,58.028347 657.547241,58.026737 
	C692.043640,57.988796 726.540100,58.018848 761.499207,58.099041 
z"/>
<path fill="#4FB1C8" opacity="1.000000" stroke="none" 
	d="
M687.885742,51.419991 
	C684.105835,48.392502 680.636292,45.617329 677.166748,42.842155 
	C677.331482,42.364704 677.496216,41.887253 677.660950,41.409801 
	C679.687500,42.021645 682.282776,42.042252 683.640930,43.348812 
	C689.190430,48.687580 694.859375,52.370800 702.740662,48.134251 
	C703.468445,47.743038 704.588867,48.082157 706.440613,48.082157 
	C700.553467,53.684929 694.609070,53.906353 687.885742,51.419991 
z"/>
<path fill="#C1E4EC" opacity="1.000000" stroke="none" 
	d="
M690.583740,230.267120 
	C692.065125,230.444214 693.145874,230.968811 694.227844,230.971176 
	C715.385742,231.017426 736.543701,231.007324 757.701660,230.983856 
	C758.516907,230.982956 759.331909,230.733765 760.453369,230.360962 
	C761.084656,230.637100 761.409607,231.152557 761.734497,231.667999 
	C760.781616,231.778534 759.828796,231.984772 758.875854,231.985565 
	C736.835815,232.003906 714.795654,232.018311 692.755920,231.931351 
	C691.896484,231.927963 691.041016,230.914352 690.583740,230.267120 
z"/>
<path fill="#AFDCE6" opacity="1.000000" stroke="none" 
	d="
M506.580872,98.275864 
	C507.011841,120.491852 507.022400,142.829269 506.999146,165.641602 
	C506.646210,165.453568 506.048218,164.790573 506.048279,164.127640 
	C506.050262,142.217529 506.109619,120.307411 506.580872,98.275864 
z"/>
<path fill="#86C9D9" opacity="1.000000" stroke="none" 
	d="
M721.342346,169.085327 
	C721.631470,169.956512 722.886292,171.037292 722.903381,172.137344 
	C723.057495,182.033279 723.008911,191.932648 722.984070,201.830917 
	C722.978394,204.112259 722.949768,206.305634 726.608643,206.245056 
	C727.007324,206.461090 726.994629,206.850586 726.679810,206.922821 
	C725.890015,207.311508 725.415039,207.627960 724.940002,207.944397 
	C724.940002,207.944397 725.029968,207.966980 725.043945,207.922943 
	C721.698608,208.099747 722.011230,205.747925 721.996826,203.566620 
	C721.921326,192.145630 721.823853,180.724762 721.342346,169.085327 
z"/>
<path fill="#86C9D9" opacity="1.000000" stroke="none" 
	d="
M581.495056,138.075317 
	C582.722168,137.740005 584.411621,137.036285 586.105347,137.026108 
	C598.708679,136.950333 611.312866,137.012085 624.374512,137.035980 
	C623.355713,137.352890 621.880920,137.925049 620.402222,137.935226 
	C607.588318,138.023483 594.773804,138.010742 581.495056,138.075317 
z"/>
<path fill="#C1E4EC" opacity="1.000000" stroke="none" 
	d="
M726.994629,206.850586 
	C726.994629,206.850586 727.007324,206.461090 727.033325,206.268173 
	C727.705139,204.546280 728.887207,203.025131 728.909668,201.487030 
	C729.057861,191.345856 728.956421,181.201050 728.919434,170.599304 
	C729.268860,171.534363 729.937561,172.924210 729.952942,174.321243 
	C730.065979,184.586411 730.048340,194.853027 730.208984,205.582047 
	C729.777893,206.377365 729.209595,206.709824 728.055359,207.024780 
	C727.469360,207.007294 726.994629,206.850586 726.994629,206.850586 
z"/>
<path fill="#A7D8E3" opacity="1.000000" stroke="none" 
	d="
M99.028931,166.394409 
	C110.269615,165.986176 121.731468,165.970200 133.670853,165.986969 
	C133.481628,166.344742 132.814606,166.953140 132.148148,166.952545 
	C121.182098,166.942673 110.216103,166.856049 99.028931,166.394409 
z"/>
<path fill="#FFFFFF" opacity="1.000000" stroke="none" 
	d="
M792.821533,57.518013 
	C783.320557,57.937534 773.611145,57.975533 763.434326,57.957840 
	C765.446106,57.601433 767.922729,57.068932 770.404602,57.043530 
	C777.806335,56.967773 785.210083,57.090988 792.821533,57.518013 
z"/>
<path fill="#86C9D9" opacity="1.000000" stroke="none" 
	d="
M727.490356,154.897827 
	C727.692810,153.073410 728.815491,151.329453 728.883301,149.545425 
	C729.129456,143.067581 729.022339,136.576324 729.055298,129.632751 
	C729.660583,130.041046 730.789734,130.916626 730.773743,131.770844 
	C730.640625,138.901428 730.348145,146.031067 729.928894,153.150711 
	C729.891174,153.790863 728.623291,154.358566 727.490356,154.897827 
z"/>
<path fill="#A7D8E3" opacity="1.000000" stroke="none" 
	d="
M232.293961,166.422791 
	C240.818710,166.002975 249.481079,165.995346 258.616272,166.018066 
	C256.613373,166.363800 254.140701,166.915802 251.661194,166.948456 
	C245.252930,167.032928 238.841644,166.888184 232.293961,166.422791 
z"/>
<path fill="#A7D8E3" opacity="1.000000" stroke="none" 
	d="
M395.082703,109.127533 
	C403.767059,108.763161 412.453949,108.877144 421.613678,109.021019 
	C419.786774,109.365463 417.487396,109.941788 415.187256,109.945137 
	C408.486755,109.954880 401.785980,109.735458 395.082703,109.127533 
z"/>
<path fill="#A7D8E3" opacity="1.000000" stroke="none" 
	d="
M260.943085,98.658630 
	C256.664032,98.736526 252.459824,98.211700 248.240707,98.025780 
	C244.117355,97.844070 239.978790,98.008171 235.373108,97.988441 
	C241.051102,97.639412 247.200623,97.171242 253.355804,97.078072 
	C255.901398,97.039528 258.459167,97.804642 260.943085,98.658630 
z"/>
<path fill="#A7D8E3" opacity="1.000000" stroke="none" 
	d="
M279.137787,166.446594 
	C287.018951,166.020416 295.108307,165.980713 303.675232,165.978912 
	C301.343842,166.342743 298.539276,166.891235 295.724945,166.947144 
	C290.268219,167.055542 284.805939,166.886917 279.137787,166.446594 
z"/>
<path fill="#4FB1C8" opacity="1.000000" stroke="none" 
	d="
M731.329956,209.846725 
	C732.149597,208.934830 733.302856,208.012817 734.803162,207.072815 
	C733.987976,207.982101 732.825806,208.909348 731.329956,209.846725 
z"/>
<path fill="#49AEC6" opacity="1.000000" stroke="none" 
	d="
M751.953125,155.570709 
	C751.598999,154.201065 751.317383,152.423111 751.059021,150.237976 
	C751.396729,151.607986 751.711182,153.385178 751.953125,155.570709 
z"/>
<path fill="#49AEC6" opacity="1.000000" stroke="none" 
	d="
M736.902954,152.255264 
	C737.452454,152.014557 738.031494,151.975327 738.610596,151.936096 
	C738.157104,152.358963 737.703613,152.781815 737.088745,153.034332 
	C736.927429,152.864014 736.932495,152.456757 736.902954,152.255264 
z"/>
<path fill="#4FB1C8" opacity="1.000000" stroke="none" 
	d="
M740.631653,196.975861 
	C740.452454,197.797180 739.960083,198.744934 739.155334,199.823334 
	C739.334778,199.003403 739.826660,198.052856 740.631653,196.975861 
z"/>
<path fill="#49AEC6" opacity="1.000000" stroke="none" 
	d="
M747.302979,161.881927 
	C747.502197,161.287552 748.006042,160.701752 748.824097,160.084473 
	C748.628052,160.665512 748.117798,161.278015 747.302979,161.881927 
z"/>
<path fill="#4FB1C8" opacity="1.000000" stroke="none" 
	d="
M740.990540,190.325760 
	C741.538025,190.520569 742.200684,190.997620 742.907227,191.807022 
	C742.335938,191.628922 741.720825,191.118454 740.990540,190.325760 
z"/>
<path fill="#49AEC6" opacity="1.000000" stroke="none" 
	d="
M699.019775,176.405487 
	C699.459290,176.295853 700.031860,176.470520 700.773254,176.903595 
	C700.345642,177.004578 699.749207,176.847183 699.019775,176.405487 
z"/>
<path fill="#4FB1C8" opacity="1.000000" stroke="none" 
	d="
M737.366821,206.104568 
	C737.536499,205.797058 738.029297,205.446030 738.838989,205.076599 
	C738.667236,205.392487 738.178528,205.726776 737.366821,206.104568 
z"/>
<path fill="#4FB1C8" opacity="1.000000" stroke="none" 
	d="
M742.387085,203.124603 
	C742.554626,202.811874 743.045227,202.455612 743.855225,202.086609 
	C743.686401,202.409622 743.198242,202.745346 742.387085,203.124603 
z"/>
<path fill="#4FB1C8" opacity="1.000000" stroke="none" 
	d="
M737.636719,200.897812 
	C737.467834,201.202972 736.980591,201.554886 736.178711,201.929504 
	C736.348938,201.616333 736.833740,201.280457 737.636719,200.897812 
z"/>
<path fill="#4FB1C8" opacity="1.000000" stroke="none" 
	d="
M731.153320,186.314117 
	C731.652527,186.218079 732.161926,186.440170 732.813599,186.909637 
	C732.358398,186.982101 731.760986,186.807190 731.153320,186.314117 
z"/>
<path fill="#49AEC6" opacity="1.000000" stroke="none" 
	d="
M729.659058,156.021683 
	C729.436279,156.222885 728.888794,156.351700 728.181946,156.294846 
	C728.459839,156.055878 728.897095,156.002579 729.659058,156.021683 
z"/>
<path fill="#49AEC6" opacity="1.000000" stroke="none" 
	d="
M701.627319,163.905518 
	C701.452454,164.215332 700.951538,164.576172 700.129272,164.975311 
	C700.305603,164.661255 700.803406,164.308884 701.627319,163.905518 
z"/>
<path fill="#49AEC6" opacity="1.000000" stroke="none" 
	d="
M720.658997,158.031525 
	C720.437012,158.229996 719.890381,158.357758 719.183716,158.301819 
	C719.460510,158.065689 719.897461,158.013260 720.658997,158.031525 
z"/>
<path fill="#49AEC6" opacity="1.000000" stroke="none" 
	d="
M751.295166,158.042511 
	C751.124451,157.832230 751.268311,157.558533 751.662659,157.172791 
	C751.741821,157.330002 751.640686,157.636124 751.295166,158.042511 
z"/>
<path fill="#4FB1C8" opacity="1.000000" stroke="none" 
	d="
M745.304016,201.047592 
	C745.255188,200.868073 745.458618,200.582047 745.894226,200.165543 
	C745.936340,200.337082 745.746338,200.639069 745.304016,201.047592 
z"/>
<path fill="#49AEC6" opacity="1.000000" stroke="none" 
	d="
M698.098633,175.277466 
	C698.408630,175.177536 698.617737,175.401917 698.835205,175.908081 
	C698.626953,175.932877 698.345093,175.736847 698.098633,175.277466 
z"/>
<path fill="#4FB1C8" opacity="1.000000" stroke="none" 
	d="
M740.281982,204.871689 
	C740.188477,204.573975 740.418335,204.362411 740.927368,204.129730 
	C740.948181,204.328735 740.747803,204.611801 740.281982,204.871689 
z"/>
<path fill="#49AEC6" opacity="1.000000" stroke="none" 
	d="
M745.282715,162.865952 
	C745.190735,162.570084 745.418640,162.360321 745.921692,162.128387 
	C745.942871,162.327469 745.744751,162.609406 745.282715,162.865952 
z"/>
<path fill="#00000000" opacity="1.000000" stroke="none" 
	d="
M469.581451,141.150436 
	C467.888245,144.307938 466.355804,147.603714 463.882568,149.875061 
	C461.262268,152.281418 457.539032,151.495041 455.600922,148.822693 
	C453.445770,145.851074 455.620636,143.084793 458.283875,141.438339 
	C461.744293,139.299072 465.416748,136.555389 469.581451,141.150436 
z"/>
<path fill="#00000000" opacity="1.000000" stroke="none" 
	d="
M184.212128,146.524017 
	C186.870209,140.472809 192.192642,139.333252 197.450760,138.347137 
	C198.108597,138.223770 200.006683,140.288666 199.839233,140.976807 
	C199.207535,143.572495 198.398422,146.342987 196.841583,148.445068 
	C194.438599,151.689606 185.989075,150.445267 184.212128,146.524017 
z"/>
<path fill="#00000000" opacity="1.000000" stroke="none" 
	d="
M583.309387,118.211548 
	C588.198303,115.538979 592.867981,114.696793 597.391418,117.906921 
	C598.716492,118.847305 599.559753,120.466515 600.623901,121.774590 
	C600.361084,122.253426 600.098328,122.732262 599.835510,123.211098 
	C593.708008,123.211098 587.580566,123.211098 580.876770,123.211098 
	C581.523682,121.782478 582.269531,120.135368 583.309387,118.211548 
z"/>
<path fill="#49AEC6" opacity="1.000000" stroke="none" 
	d="
M726.049927,168.047897 
	C726.098511,168.093033 725.684998,167.845978 725.684998,167.845978 
	C725.684998,167.845978 725.981506,167.870178 726.037720,167.983887 
	C726.093994,168.097580 726.001404,168.002762 726.049927,168.047897 
z"/>
<path fill="#00000000" opacity="1.000000" stroke="none" 
	d="
M726.679810,206.922821 
	C726.994629,206.850586 727.469360,207.007294 727.710449,207.076065 
	C727.085327,207.638382 726.219177,208.131943 725.146484,208.284943 
	C725.415039,207.627960 725.890015,207.311508 726.679810,206.922821 
z"/>
</svg>