<svg id="svg" version="1.1" xmlns="http://www.w3.org/2000/svg" xmlns:xlink="http://www.w3.org/1999/xlink" width="400" height="400" viewBox="0, 0, 400,400"><g id="svgg"><path id="path0" d="M194.247 2.060 L 192.188 4.119 192.188 33.594 L 192.188 63.068 194.247 65.128 C 197.183 68.064,202.817 68.064,205.753 65.128 L 207.813 63.068 207.813 33.594 L 207.813 4.119 205.753 2.060 C 204.108 0.415,202.949 0.000,200.000 0.000 C 197.051 0.000,195.892 0.415,194.247 2.060 M46.034 61.659 C 40.540 67.153,41.763 69.301,61.997 89.701 C 82.418 110.289,85.134 111.861,90.685 106.310 C 96.236 100.759,94.664 98.043,74.076 77.622 C 53.676 57.388,51.528 56.165,46.034 61.659 M344.141 60.272 C 341.704 61.597,309.407 93.884,308.151 96.250 C 304.169 103.752,311.509 111.521,318.997 107.730 C 321.431 106.497,353.786 74.252,355.130 71.718 C 359.121 64.200,351.505 56.268,344.141 60.272 M177.344 91.777 C 125.354 99.457,75.060 130.068,33.799 179.148 C 16.119 200.177,16.119 199.810,33.796 220.856 C 133.064 339.049,269.810 338.397,367.473 219.265 C 383.710 199.458,383.710 200.542,367.473 180.735 C 314.612 116.255,241.912 82.239,177.344 91.777 M217.969 107.899 C 263.890 112.914,315.983 144.563,354.134 190.625 C 362.396 200.601,362.396 199.398,354.138 209.375 C 316.674 254.638,267.093 285.206,220.313 291.881 C 161.387 300.288,95.262 269.013,45.866 209.375 C 37.603 199.398,37.603 200.602,45.866 190.625 C 94.991 131.314,157.454 101.289,217.969 107.899 M182.120 131.659 C 171.743 134.340,169.531 136.188,169.531 142.178 C 169.531 148.692,175.180 150.853,184.832 148.032 C 230.106 134.798,269.924 183.266,248.020 224.948 C 220.897 276.563,143.950 255.130,146.285 196.610 C 146.707 186.044,145.932 182.920,142.504 181.358 C 123.553 172.724,125.123 219.069,144.627 244.023 C 180.154 289.479,254.171 273.587,268.413 217.445 C 281.592 165.489,234.063 118.239,182.120 131.659 M147.372 155.185 C 145.728 156.829,145.313 157.989,145.313 160.938 C 145.313 163.886,145.728 165.046,147.372 166.690 C 149.017 168.335,150.176 168.750,153.125 168.750 C 160.408 168.750,163.992 160.299,158.878 155.185 C 157.233 153.540,156.074 153.125,153.125 153.125 C 150.176 153.125,149.017 153.540,147.372 155.185 M189.319 170.218 C 163.250 179.880,161.380 216.345,186.328 228.564 C 197.458 234.015,213.373 231.249,222.311 222.311 C 245.647 198.975,220.188 158.776,189.319 170.218 M206.867 186.636 C 220.654 193.672,215.572 214.844,200.096 214.844 C 184.123 214.844,179.167 193.956,193.359 186.457 C 196.631 184.729,203.303 184.817,206.867 186.636 M80.859 300.116 C 78.423 301.440,46.126 333.727,44.870 336.094 C 40.888 343.596,48.228 351.365,55.715 347.573 C 58.150 346.340,90.505 314.096,91.849 311.562 C 95.839 304.044,88.224 296.112,80.859 300.116 M309.315 301.502 C 303.821 306.996,305.044 309.145,325.278 329.544 C 345.699 350.132,348.415 351.705,353.966 346.154 C 359.517 340.603,357.945 337.887,337.357 317.466 C 316.957 297.232,314.809 296.009,309.315 301.502 M194.247 334.872 L 192.188 336.932 192.188 366.406 L 192.188 395.881 194.247 397.940 C 197.183 400.876,202.817 400.876,205.753 397.940 L 207.813 395.881 207.813 366.406 L 207.813 336.932 205.753 334.872 C 204.108 333.228,202.949 332.813,200.000 332.813 C 197.051 332.813,195.892 333.228,194.247 334.872 " stroke="none" fill="#303030" fill-rule="evenodd"></path></g></svg>